<svg xmlns="http://www.w3.org/2000/svg" viewBox="0 0 1523.95 1080"><defs><style>.cls-1{fill:#c92711;}</style></defs><g id="Camada_2" data-name="Camada 2"><g id="Camada_1-2" data-name="Camada 1"><rect class="cls-1" x="1400.08" y="355.4" width="123.87" height="484.83"/><path class="cls-1" d="M635.35,588.19c18.07-6.82,38.58-9.66,58-9.66,20.91,0,34.21-6.82,46.52-23.83,71-97.86,143.39-194.73,214.65-292.4C973,237,989.17,210.09,1007.3,182.5l25.41-32.82c7.54-9.33,12.5-15.09,16.94-21.24,24.22-33.22,22-46.12-12.57-69.22q-34.15-22.83-68.76-45.06C935-7.35,923.79-5.29,900.5,26.8c-5,7-9.26,14.42-15.55,24.28L860,84.23c-52.94,70-104.15,137.24-154.7,204.8-34.15,45.66-67.69,91.71-101,138-29.52,41-57.64,83-87.75,123.47C438.37,655.68,438,655.42,413.75,783.59q-.94,5.08-1.91,10.2c-54.17-30.27-134.82-10-191.15,51.55C203.52,864.12,186,889,171,915.25c-.19.28-.37.62-.56.89-48.77,82.91-96.64,76.15-117.25,59-4.84-4-.3-11.82,5.6-9.58,5.38,2,11,3.39,16.3,3.16,18.11-.81,35.61-11,34.42-37.64s-18.32-42.24-44.89-41S-2.45,908.5.12,965.88c2.54,56.85,69.12,120.31,246.6,113.64,1.59,0,3.24-.08,4.9-.16C309,1077,390.56,1049.81,430,1006.65c53-58,54.57-124.91,22.71-173.44,47.25-26.91,91.77-52.28,135.83-77.35-5.22-14.55-9.26-23.55-11.71-33C561.44,661.83,584.14,607.51,635.35,588.19Z"/><path class="cls-1" d="M379.48,597c27.13,8.47,51.15.13,71.66-27.07Q528.56,467.29,604.92,364c11.71-15.81,21.37-33.15,33-49,38.24-52.08,76.95-103.76,115.4-155.63.59-.8.4-2.12.93-5.49-31.43-18.27-31.63-18.93-62.07-9.4-46,14.49-91.91,29.38-137.31,45.59-10.45,3.77-21.76,11.65-27.46,20.91Q437.12,356.55,349,503.69c-7.34,12.44-11.25,29.11-10.72,43.6C339.11,572.77,354.86,589.38,379.48,597Z"/><path class="cls-1" d="M1357.67,426.93c0-9.4-1.65-18.79-2.71-30.31-16.08,0-29.18.53-42.22-.19-10.79-.6-22.56-.27-31.89-4.57-66.9-30.57-133.14-62.47-199.77-93.5-26.54-12.37-53.53-23.62-79.27-34.87C923.73,368.1,848,469.68,767.37,577.8c42.48,0,77,.46,111.56-.46,5.49-.14,11.58-5.7,16.15-10.06,22.83-21.91,45.26-44.34,67.95-66.44,11.05-10.78,23.49-19.25,36.59-4.63,11.85,13.17,2.52,24.35-7.27,34.14-19.33,19.26-40.7,36.93-57.77,58.1-14.69,18.2-30.9,25.48-53.67,25.21-61.54-.79-123.14-.33-184.67,0-12,.07-24.36.47-35.87,3.38-30.17,7.54-51.81,34.21-53.66,63.72-1.86,29.91,16.54,56.11,48.7,66.5,11.25,3.64,23.75,4.63,35.66,4.76,50.56.47,101.24,2.45,151.66-.52,41.69-2.39,78.22,5.29,109.45,33.48,52.94,47.71,115,55.78,184.81,57.76,77.49,2.19,141-16.87,199.11-65.5,15.09-12.58,22.23-24,22.1-43.61C1357.41,631.4,1357.87,529.16,1357.67,426.93Z"/></g></g></svg>