<svg xmlns="http://www.w3.org/2000/svg" viewBox="0 0 1080 1102.38"><defs><style>.cls-1{fill:#691c12;}</style></defs><g id="Camada_2" data-name="Camada 2"><g id="Camada_1-2" data-name="Camada 1"><path class="cls-1" d="M998.55,624a134.72,134.72,0,0,0-148.29,28.2s0,0,0,0q-1.83,1.8-3.59,3.71s-.07.07-.12.12a51.52,51.52,0,0,0,2.33,70.37,54.45,54.45,0,0,0,4.81,4.24l1.11.82c.21.17.41.35.62.51a31.75,31.75,0,1,1-40.82,48.65c-.37-.3-.71-.6-1.06-.92-2.51-2.19-5-4.45-7.44-6.7a313.89,313.89,0,0,1,16.59-474.52,12,12,0,0,1,17.53,16,31.69,31.69,0,0,0,1.06,36.59,3.89,3.89,0,0,0,.41.5c.51.65,1.06,1.27,1.59,1.89,0,.05,0,.05,0,.07a83.31,83.31,0,0,0,102.46,18.24c38.46-20.87,54.15-69,35.52-108.58a83.21,83.21,0,0,0-110.53-40c-1.08.5-2.16,1.05-3.27,1.56q4-7.64,7.67-15.46a83.24,83.24,0,0,0-40-110.52c-39.6-18.63-87.74-2.94-108.59,35.52A83.28,83.28,0,0,0,744.8,236.73s0,0,.05.05c.62.53,1.27,1.08,1.89,1.59.18.16.34.27.53.41a31.68,31.68,0,0,0,36.55,1.06h0a12,12,0,0,1,16,17.53,315.89,315.89,0,0,1-30.63,32.9,312.37,312.37,0,0,1-106.4,65,311.48,311.48,0,0,1-123.28,18.62,312.14,312.14,0,0,1-116.81-29.1A313,313,0,0,1,325.32,274c-2.29-2.44-4.52-4.93-6.73-7.44-.3-.35-.62-.69-.92-1.06a31.75,31.75,0,1,1,48.65-40.82c.18.21.34.41.5.62.3.37.58.74.83,1.11a56.38,56.38,0,0,0,4.26,4.81,51.54,51.54,0,0,0,70.38,2.33s.07-.07.09-.12c1.26-1.17,2.51-2.37,3.71-3.59,0,0,0,0,0-.05a134.74,134.74,0,0,0,28.2-148.3C447.12,18.06,375.14-14.72,309.47,6.38a134.75,134.75,0,0,0-85.6,174.47,352.79,352.79,0,0,0,52.4,95.2,352.11,352.11,0,0,0-95.43-52.54A134.74,134.74,0,0,0,6.38,309.11C-14.7,374.78,18.05,446.76,81.47,474a134.75,134.75,0,0,0,148.3-28.2,0,0,0,0,0,0,0c1.24-1.2,2.44-2.44,3.62-3.71l.09-.09a51.5,51.5,0,0,0-2.33-70.37,47.84,47.84,0,0,0-4.79-4.27c-.39-.25-.74-.53-1.11-.82l-.62-.51a31.75,31.75,0,0,1,40.82-48.65c.37.3.71.62,1.06.92,2.51,2.19,5,4.44,7.44,6.73a314.91,314.91,0,0,1,99.88,214.2,315,315,0,0,1-83.59,229.68,312.9,312.9,0,0,1-32.9,30.63,12,12,0,0,1-17.5-16v0a31.75,31.75,0,0,0-1.09-36.57,4.6,4.6,0,0,0-.39-.51c-.53-.62-1.06-1.27-1.61-1.89a.12.12,0,0,0,0,0A83.29,83.29,0,0,0,134.26,726.2c-38.44,20.85-54.13,69-35.49,108.59a82.29,82.29,0,0,0,21.93,28.42,83.21,83.21,0,0,0,88.59,11.56,354.15,354.15,0,0,0,33.93-18.15,359.38,359.38,0,0,0-19.7,36.49,83.21,83.21,0,0,0,40,110.52c39.59,18.64,87.74,3,108.58-35.52a83.31,83.31,0,0,0-18.24-102.46l-.07,0c-.6-.53-1.24-1.09-1.89-1.62l-.51-.39a31.75,31.75,0,0,0-36.58-1.06,11.94,11.94,0,0,1-6.84,2.12,11.8,11.8,0,0,1-7.67-2.79A12,12,0,0,1,298.85,845a314.35,314.35,0,0,1,474.52-16.6c2.28,2.46,4.51,5,6.7,7.44.32.36.62.71.92,1.08a31.75,31.75,0,0,1-48.65,40.82l-.51-.65c-.27-.34-.55-.71-.83-1.08a53.05,53.05,0,0,0-4.23-4.82,51.54,51.54,0,0,0-70.38-2.32.75.75,0,0,1-.09.09c-1.29,1.2-2.51,2.4-3.73,3.62,0,0,0,0,0,0a134.64,134.64,0,0,0-28.17,148.28c27.15,63.41,99.14,96.17,164.81,75.09a134.74,134.74,0,0,0,85.6-174.47,353.35,353.35,0,0,0-40-78.15,353.52,353.52,0,0,0,64.36,31,134.74,134.74,0,0,0,174.46-85.6C1094.7,723.16,1062,651.18,998.55,624Zm-341.5-72.8a328,328,0,0,0,19.84,120.94c3.11,8.6,6.57,17,10.31,25.14A12.51,12.51,0,0,1,670.72,714q-11-5-22.65-9.22A327.57,327.57,0,0,0,540,684.9a327.57,327.57,0,0,0-108.07,19.85Q420.32,709,409.28,714a12.51,12.51,0,0,1-16.48-16.7c3.74-8.16,7.2-16.54,10.31-25.14A328,328,0,0,0,423,551.19a328,328,0,0,0-19.84-120.94c-3.11-8.6-6.57-17-10.31-25.15a12.5,12.5,0,0,1,16.48-16.69q11,5,22.65,9.21A327.59,327.59,0,0,0,540,417.48a327.59,327.59,0,0,0,108.07-19.86q11.61-4.22,22.65-9.21A12.5,12.5,0,0,1,687.2,405.1c-3.74,8.17-7.2,16.55-10.31,25.15A328,328,0,0,0,657.05,551.19Z"/></g></g></svg>