<svg xmlns="http://www.w3.org/2000/svg" viewBox="0 0 828.29 1080"><defs><style>.cls-1{fill:#f9f8f3;}</style></defs><g id="Camada_2" data-name="Camada 2"><g id="Camada_1-2" data-name="Camada 1"><path class="cls-1" d="M745.44,567.63A82.85,82.85,0,0,0,804,426.2c-38.89-38.89-58.59-93.05-58.59-148V165.63h-5.7c-25,0-47.69-15.18-56.41-38.57A110.5,110.5,0,0,0,579.81,55.19,109.09,109.09,0,0,0,543,61.52a165.62,165.62,0,0,0-257.63,0,109.31,109.31,0,0,0-36.85-6.33A110.5,110.5,0,0,0,145,127.06c-8.72,23.39-31.45,38.57-56.41,38.57H82.84V278.16c0,55-19.69,109.15-58.57,148A82.84,82.84,0,0,0,82.84,567.63,82.8,82.8,0,0,0,24.27,709c38.88,38.89,58.57,93,58.57,148V969.56H86.1a431,431,0,0,1,261.2,87.91,110.49,110.49,0,0,0,133.76,0,430.68,430.68,0,0,1,261.16-87.89h3.22V857c0-55,19.7-109.15,58.59-148a82.8,82.8,0,0,0-58.59-141.36ZM630.79,866a4.12,4.12,0,0,1-4.12,4.12h-425A4.12,4.12,0,0,1,197.5,866V233a4.12,4.12,0,0,1,4.12-4.12H626.67a4.12,4.12,0,0,1,4.12,4.12Z"/></g></g></svg>