<svg xmlns="http://www.w3.org/2000/svg" xmlns:xlink="http://www.w3.org/1999/xlink" viewBox="0 0 1920 3000"><defs><style>.cls-1{fill:none;}.cls-2{fill:#f9f8f3;}.cls-3{fill:url(#Padrao_branco);}</style><pattern id="Padrao_branco" data-name="Padrao branco" width="221.52" height="264.61" patternTransform="translate(-120.85 -489.34)" patternUnits="userSpaceOnUse" viewBox="0 0 221.52 264.61"><rect class="cls-1" width="221.52" height="264.61"/><path class="cls-2" d="M148.47,201.74c18.26,0,31.69,8.62,39.92,25.6,6,12.49,4.43,26.55,3,39-.93,8.1-1.81,15.75-.37,21.88,1.81,7.76,6.5,12.39,12.53,12.39,4.88,0,8.53-3,9.29-7.6a7.37,7.37,0,0,0-1.36-6c-1.45-1.77-3.79-2.73-6.94-2.84a1.4,1.4,0,0,1-.77-.49.71.71,0,0,1-.1-.63c.46-2.47,4.7-3.4,7.27-3.4a6.32,6.32,0,0,1,.65,0c.12,0,11.64,1,11.64,12.79,0,11.94-7.95,17.26-8.28,17.47a2,2,0,0,0,.91,3.68c.34,0,1.4.29,1.4.65,0,.53-2.76,2-7,2-3.73,0-8.92-2.43-9-2.46a2,2,0,0,0-.86-.19,2,2,0,0,0-1.32.5,2,2,0,0,0-.58,2.13,17.68,17.68,0,0,1,.94,4.62h-.15c-1,0-4.2-.94-11.47-9.69-5.62-6.77-8.51-19.08-8.53-19.21a2,2,0,0,0-1.91-1.55h0a2,2,0,0,0-1.93,1.46c-.6,2.15-2.37,8.11-3.36,9.91-.08.16-.17.32-.26.51-.79,1.5-1.54,2.76-2.83,2.87h-.12c-1,0-1.77-1.2-1.77-1.2h0a2,2,0,0,0-1.71-1h-.06a2,2,0,0,0-1.71,1.08,18.16,18.16,0,0,1-3.5,4.73,6.42,6.42,0,0,1-4.07,1.48,9.38,9.38,0,0,1-1.14-.08,3.65,3.65,0,0,1-.77-.19c1.54-2.26,6-7.88,6-7.94a2,2,0,0,0-1.58-3.23,2.11,2.11,0,0,0-.82.17,4.47,4.47,0,0,1-1.59.35c-.67,0-.86-.24-.95-.36-.28-.38.2-2,1.62-3.14.56-.47,1.28-1,2-1.62a46,46,0,0,0,6.28-5.52,21.88,21.88,0,0,0,4.8-12.6,2,2,0,0,0-1.62-2,1.72,1.72,0,0,0-.39,0,2,2,0,0,0-1.86,1.27c-.43,1.1-2,4.15-4.11,5.14a4.13,4.13,0,0,1-1.69.47c-1.06,0-1.32-1.33-1.36-1.57a2,2,0,0,0-1.68-1.71,1.51,1.51,0,0,0-.3,0,2,2,0,0,0-1.82,1.16,6.21,6.21,0,0,1-4.11,3.27,8,8,0,0,1-1.28.11,5.27,5.27,0,0,1-3-.78,77.48,77.48,0,0,1,6-5c8.92-7,20-15.72,20-35.59,0-9.27-8.12-27.45-26.89-27.45-12.51,0-20.28,7-20.28,18.18,0,5.23,4.3,11.59,10.47,12.34a12.87,12.87,0,0,0,1.51.09c3.45,0,6.34-1.43,7.54-3.74a5.86,5.86,0,0,0,.06-5,4.67,4.67,0,0,0-3.51-2.56,5.53,5.53,0,0,0-1-.09,12,12,0,0,0-1.92.19,12,12,0,0,1-1.62.16,3,3,0,0,1-2.3-1,3.39,3.39,0,0,1-.33-3.71c1.09-2.63,4.56-5.45,11-5.45,1.11,0,10.85.37,10.85,13.13,0,6.31-6,15.64-18.88,15.64-12.69,0-20.27-11.3-20.27-22.22,0-16,13.18-27.6,31.32-27.6m0-2c-20.53,0-33.32,13.55-33.32,29.6,0,12.18,8.74,24.22,22.27,24.22,14.7,0,20.88-10.92,20.88-17.64,0-11.91-7.89-15.13-12.85-15.13-12,0-15.65,9-12.11,12.57a5,5,0,0,0,3.72,1.57c1.26,0,2.46-.35,3.54-.35a3.71,3.71,0,0,1,.67.06c2.75.49,2.67,3.47,2,4.69-.84,1.6-3.09,2.66-5.77,2.66a11.1,11.1,0,0,1-1.27-.08c-4.87-.59-8.71-5.86-8.71-10.35,0-11.42,8.44-16.18,18.28-16.18,17,0,24.89,16.62,24.89,25.45,0,24.45-17.75,31.22-26,39.83-1.13,1.18,1.24,3.54,5,3.54a9.18,9.18,0,0,0,1.62-.14,8.17,8.17,0,0,0,5.59-4.41s.43,3.31,3.34,3.31a6.11,6.11,0,0,0,2.54-.66c3.32-1.56,5.13-6.22,5.13-6.22a19.89,19.89,0,0,1-4.33,11.34c-1.82,2.16-5.89,5.09-8.07,6.89-2,1.64-3.11,4.33-1.93,5.88a3,3,0,0,0,2.54,1.16,6.47,6.47,0,0,0,2.42-.53s-4.85,6.14-6.28,8.32c-.42.65-.78,2.61,2.33,3a10.16,10.16,0,0,0,1.41.1,8.33,8.33,0,0,0,5.31-1.91c2.09-1.64,4-5.38,4-5.38a4.62,4.62,0,0,0,3.48,2.16h.3c2.78-.26,3.94-3.08,4.67-4.42,1.31-2.39,3.53-10.33,3.53-10.33s2.94,12.81,8.94,20c3.49,4.19,9.14,10.41,13,10.41a2.92,2.92,0,0,0,1.61-.45c1.44-.92-.5-6.81-.5-6.81s5.59,2.65,9.83,2.65c4,0,9-1.39,9-4,0-2.39-3.23-2.64-3.23-2.64s9.2-5.88,9.2-19.16c0-11.3-9.58-14.49-13.49-14.79-.24,0-.51,0-.8,0-3.09,0-8.51,1.11-9.24,5a3,3,0,0,0,2.73,3.49c5.8.21,6.94,3.49,6.43,6.55-.55,3.36-3.09,5.93-7.31,5.93-5.92,0-9.31-5.4-10.59-10.84-3.48-14.89,7.54-40-2.77-61.25-6.9-14.23-19.5-26.73-41.72-26.73Z"/><path class="cls-2" d="M32.86,204.72h0m.11.35c1,0,4.2,1,11.47,9.69C50.07,221.53,53,233.85,53,234a2,2,0,0,0,1.9,1.55h0a2,2,0,0,0,1.92-1.46c.6-2.15,2.37-8.11,3.36-9.91l.27-.51c.78-1.5,1.53-2.76,2.82-2.87h.12c1,0,1.77,1.2,1.77,1.2h0a2,2,0,0,0,1.71,1H67a2,2,0,0,0,1.7-1.08,18.4,18.4,0,0,1,3.5-4.73,6.43,6.43,0,0,1,4.08-1.48,7.8,7.8,0,0,1,1.14.09,3.24,3.24,0,0,1,.76.18c-1.54,2.26-6,7.88-6,7.94a2,2,0,0,0,1.58,3.23,1.93,1.93,0,0,0,.81-.17,4.47,4.47,0,0,1,1.59-.35c.67,0,.86.25.95.36.28.38-.2,2-1.62,3.14-.56.47-1.28,1-2,1.62a46.78,46.78,0,0,0-6.29,5.52,21.77,21.77,0,0,0-4.79,12.6,2,2,0,0,0,1.61,2,1.72,1.72,0,0,0,.39,0,2,2,0,0,0,1.86-1.27c.43-1.1,2-4.15,4.11-5.13a4.07,4.07,0,0,1,1.7-.48c1.06,0,1.31,1.33,1.35,1.57A2,2,0,0,0,75,248.22a1.62,1.62,0,0,0,.31,0,2,2,0,0,0,1.81-1.16,6.3,6.3,0,0,1,4.11-3.27,8,8,0,0,1,1.28-.11,5.27,5.27,0,0,1,3,.78,77.48,77.48,0,0,1-6,5c-8.91,7-20,15.72-20,35.59,0,9.27,8.12,27.45,26.9,27.45,12.5,0,20.27-7,20.27-18.18,0-5.23-4.3-11.59-10.47-12.33a10.94,10.94,0,0,0-1.51-.1c-3.45,0-6.34,1.43-7.54,3.74a5.9,5.9,0,0,0-.06,5,4.69,4.69,0,0,0,3.51,2.56,5.56,5.56,0,0,0,1,.09,13.16,13.16,0,0,0,1.91-.18A10.63,10.63,0,0,1,95.2,293a3,3,0,0,1,2.3,1,3.37,3.37,0,0,1,.33,3.71c-1.09,2.63-4.56,5.45-11,5.45C85.7,303.11,76,302.74,76,290c0-6.3,6-15.64,18.88-15.64,12.69,0,20.27,11.3,20.27,22.22,0,17.54-11.42,27.6-31.32,27.6-20.31,0-34.19-13.79-39.91-25.6-6.05-12.48-4.43-26.54-3-38.95.93-8.1,1.81-15.75.38-21.88-1.82-7.76-6.5-12.38-12.54-12.38-4.88,0-8.52,3-9.28,7.59A7.44,7.44,0,0,0,20.78,239c1.45,1.76,3.8,2.72,6.94,2.83a1.4,1.4,0,0,1,.77.49.71.71,0,0,1,.1.63c-.46,2.48-4.7,3.4-7.27,3.4l-.65,0c-.12,0-11.64-1-11.64-12.8,0-11.94,8-17.26,8.28-17.47a2,2,0,0,0-.9-3.68c-.34,0-1.41-.29-1.41-.65,0-.53,2.76-2,7-2,3.74,0,8.93,2.43,9,2.46a2,2,0,0,0,.85.19,2,2,0,0,0,1.9-2.63,17.68,17.68,0,0,1-.94-4.62H33m0-2a2.88,2.88,0,0,0-1.62.46c-1.44.91.5,6.8.5,6.8s-5.58-2.65-9.83-2.65c-4,0-9,1.39-9,4,0,2.39,3.23,2.64,3.23,2.64S7,220.25,7,233.52c0,11.3,9.58,14.5,13.49,14.79.24,0,.51,0,.8,0,3.09,0,8.51-1.11,9.24-5a3,3,0,0,0-2.73-3.49c-5.8-.21-6.93-3.48-6.43-6.55.55-3.36,3.1-5.92,7.31-5.92,5.93,0,9.31,5.39,10.59,10.83,3.48,14.89-7.54,39.95,2.78,61.25,6.89,14.23,22.38,26.73,41.71,26.73,23.74,0,33.32-13.55,33.32-29.6,0-12.18-8.74-24.22-22.27-24.22C80.14,272.34,74,283.26,74,290c0,11.91,7.89,15.13,12.85,15.13,12,0,15.66-9,12.11-12.57A5,5,0,0,0,95.2,291c-1.26,0-2.46.35-3.53.35a3.74,3.74,0,0,1-.68-.06c-2.74-.49-2.67-3.47-2-4.69.84-1.6,3.09-2.66,5.77-2.66A11,11,0,0,1,96,284c4.87.59,8.71,5.86,8.71,10.35,0,11.42-8.44,16.18-18.27,16.18-17,0-24.9-16.62-24.9-25.45,0-24.45,17.75-31.22,26-39.83,1.14-1.18-1.24-3.54-5-3.54a9.26,9.26,0,0,0-1.62.14,8.2,8.2,0,0,0-5.59,4.41s-.43-3.31-3.33-3.31a6.12,6.12,0,0,0-2.55.66c-3.32,1.56-5.12,6.22-5.12,6.22a19.81,19.81,0,0,1,4.33-11.34c1.81-2.16,5.89-5.09,8.06-6.89,2-1.64,3.11-4.33,1.93-5.88a3,3,0,0,0-2.54-1.16,6.45,6.45,0,0,0-2.41.53s4.84-6.14,6.27-8.32c.43-.65.78-2.61-2.32-3a12.14,12.14,0,0,0-1.41-.1,8.34,8.34,0,0,0-5.32,1.91c-2.08,1.64-4,5.38-4,5.38a4.6,4.6,0,0,0-3.48-2.16l-.3,0c-2.77.25-3.93,3.08-4.66,4.41-1.32,2.39-3.53,10.33-3.53,10.33s-2.94-12.81-9-20c-3.48-4.19-9.14-10.41-13-10.41Z"/><path class="cls-2" d="M-73,201.74c18.26,0,31.68,8.62,39.91,25.6,6.05,12.49,4.44,26.55,3,39-.93,8.1-1.81,15.75-.37,21.88,1.81,7.76,6.49,12.39,12.53,12.39,4.88,0,8.52-3,9.28-7.6a7.34,7.34,0,0,0-1.35-6c-1.45-1.77-3.8-2.73-6.94-2.84a1.4,1.4,0,0,1-.77-.49.71.71,0,0,1-.1-.63c.46-2.47,4.7-3.4,7.27-3.4.23,0,.45,0,.65,0s11.64,1,11.64,12.79c0,11.94-7.95,17.26-8.28,17.47A2,2,0,0,0-7.43,312a2,2,0,0,0,1.77,1.52c.33,0,1.4.29,1.4.65,0,.53-2.76,2-7,2-3.74,0-8.92-2.43-9-2.46a2,2,0,0,0-.85-.19,2,2,0,0,0-1.33.5A2,2,0,0,0-23,316.2a17.68,17.68,0,0,1,.94,4.62h-.15c-1,0-4.2-.94-11.47-9.69-5.63-6.77-8.51-19.08-8.54-19.21a2,2,0,0,0-1.9-1.55h0a2,2,0,0,0-1.92,1.46c-.6,2.15-2.37,8.11-3.36,9.91l-.27.51c-.78,1.5-1.53,2.76-2.82,2.87h-.12c-1,0-1.77-1.2-1.77-1.2h0a2,2,0,0,0-1.71-1h-.07a2,2,0,0,0-1.7,1.08,18.4,18.4,0,0,1-3.5,4.73,6.43,6.43,0,0,1-4.08,1.48,9.52,9.52,0,0,1-1.14-.08,3.68,3.68,0,0,1-.76-.19c1.54-2.26,6-7.88,6-7.94a2,2,0,0,0,0-2.46,2,2,0,0,0-1.58-.77,2.11,2.11,0,0,0-.82.17,4.47,4.47,0,0,1-1.59.35c-.67,0-.86-.24-1-.36-.28-.38.2-2,1.62-3.14.56-.47,1.28-1,2-1.62a47.28,47.28,0,0,0,6.28-5.52,21.75,21.75,0,0,0,4.79-12.6,2,2,0,0,0-1.61-2,1.72,1.72,0,0,0-.39,0,2,2,0,0,0-1.86,1.27c-.43,1.1-2,4.15-4.11,5.14a4.13,4.13,0,0,1-1.7.47c-1,0-1.31-1.33-1.35-1.57a2,2,0,0,0-1.68-1.71,1.51,1.51,0,0,0-.3,0,2,2,0,0,0-1.82,1.16,6.24,6.24,0,0,1-4.11,3.27,8,8,0,0,1-1.28.11,5.27,5.27,0,0,1-3-.78,77.48,77.48,0,0,1,6-5c8.91-7,20-15.72,20-35.59,0-9.27-8.12-27.45-26.89-27.45-12.51,0-20.28,7-20.28,18.18,0,5.23,4.3,11.59,10.47,12.34A12.75,12.75,0,0,0-84,244c3.45,0,6.34-1.43,7.54-3.74a5.9,5.9,0,0,0,.06-5,4.69,4.69,0,0,0-3.51-2.56,5.53,5.53,0,0,0-1-.09,12,12,0,0,0-1.92.19,12,12,0,0,1-1.62.16,3,3,0,0,1-2.3-1,3.37,3.37,0,0,1-.33-3.71c1.09-2.63,4.56-5.45,11-5.45,1.11,0,10.85.37,10.85,13.13,0,6.31-6,15.64-18.88,15.64-12.69,0-20.27-11.3-20.27-22.22,0-16,13.17-27.6,31.32-27.6m0-2c-20.54,0-33.32,13.55-33.32,29.6,0,12.18,8.74,24.22,22.27,24.22,14.7,0,20.88-10.92,20.88-17.64,0-11.91-7.89-15.13-12.85-15.13-12,0-15.65,9-12.11,12.57a5,5,0,0,0,3.72,1.57c1.26,0,2.46-.35,3.54-.35a3.71,3.71,0,0,1,.67.06c2.74.49,2.67,3.47,2,4.69-.84,1.6-3.09,2.66-5.77,2.66a11.1,11.1,0,0,1-1.27-.08c-4.87-.59-8.71-5.86-8.71-10.35,0-11.42,8.44-16.18,18.28-16.18,17,0,24.89,16.62,24.89,25.45,0,24.45-17.75,31.22-26,39.83-1.14,1.18,1.24,3.54,5,3.54a9.18,9.18,0,0,0,1.62-.14,8.17,8.17,0,0,0,5.59-4.41s.43,3.31,3.33,3.31a6.12,6.12,0,0,0,2.55-.66c3.32-1.56,5.12-6.22,5.12-6.22a19.84,19.84,0,0,1-4.32,11.34c-1.82,2.16-5.9,5.09-8.07,6.89-2,1.64-3.11,4.33-1.93,5.88a3,3,0,0,0,2.54,1.16,6.53,6.53,0,0,0,2.42-.53s-4.85,6.14-6.28,8.32c-.43.65-.78,2.61,2.33,3a10.13,10.13,0,0,0,1.4.1,8.34,8.34,0,0,0,5.32-1.91c2.09-1.64,4-5.38,4-5.38a4.6,4.6,0,0,0,3.48,2.16h.3c2.77-.26,3.94-3.08,4.67-4.42,1.31-2.39,3.52-10.33,3.52-10.33s2.95,12.81,8.95,20c3.49,4.19,9.14,10.41,13,10.41a3,3,0,0,0,1.61-.45c1.44-.92-.5-6.81-.5-6.81s5.59,2.65,9.83,2.65c4,0,9-1.39,9-4,0-2.39-3.23-2.64-3.23-2.64s9.2-5.88,9.2-19.16c0-11.3-9.58-14.49-13.49-14.79-.24,0-.51,0-.8,0-3.09,0-8.51,1.11-9.24,5a3,3,0,0,0,2.73,3.49c5.8.21,6.93,3.49,6.43,6.55-.55,3.36-3.1,5.93-7.31,5.93-5.92,0-9.31-5.4-10.59-10.84-3.48-14.89,7.54-40-2.78-61.25-6.89-14.23-19.49-26.73-41.71-26.73Z"/><path class="cls-2" d="M143.62,72.41h0m.12.35c1,0,4.19.95,11.46,9.69,5.63,6.77,8.51,19.09,8.54,19.21a2,2,0,0,0,1.9,1.55h.05a2,2,0,0,0,1.92-1.46c.6-2.14,2.38-8.11,3.36-9.91l.27-.5c.78-1.51,1.53-2.76,2.82-2.88h.12c1,0,1.77,1.2,1.77,1.2h0a2,2,0,0,0,1.71,1h.07a2,2,0,0,0,1.71-1.08,18.07,18.07,0,0,1,3.49-4.72A6.39,6.39,0,0,1,187,83.33a7.73,7.73,0,0,1,1.14.08,3,3,0,0,1,.76.18c-1.54,2.27-6,7.88-6,7.94a2,2,0,0,0,1.58,3.24,2,2,0,0,0,.82-.18,4.35,4.35,0,0,1,1.58-.35c.67,0,.86.25,1,.37.29.37-.2,2-1.62,3.13-.56.47-1.27,1-2,1.63a46.71,46.71,0,0,0-6.28,5.51,21.81,21.81,0,0,0-4.8,12.61,2,2,0,0,0,1.61,2,2.56,2.56,0,0,0,.39,0,2,2,0,0,0,1.86-1.27c.43-1.09,2-4.15,4.11-5.13a4.24,4.24,0,0,1,1.7-.48c1.06,0,1.31,1.33,1.35,1.57a2,2,0,0,0,1.68,1.71l.31,0a2,2,0,0,0,1.81-1.16A6.27,6.27,0,0,1,192,111.5a8,8,0,0,1,1.28-.11,5.36,5.36,0,0,1,3,.78,75.27,75.27,0,0,1-6,5c-8.91,7-20,15.72-20,35.59,0,9.28,8.12,27.45,26.89,27.45,12.5,0,20.27-7,20.27-18.17,0-5.24-4.3-11.6-10.47-12.34a12.75,12.75,0,0,0-1.51-.09c-3.44,0-6.33,1.43-7.54,3.73a5.92,5.92,0,0,0-.06,5,4.73,4.73,0,0,0,3.51,2.56,6.63,6.63,0,0,0,1,.08,13,13,0,0,0,1.91-.18,12,12,0,0,1,1.62-.16,3,3,0,0,1,2.31,1,3.37,3.37,0,0,1,.32,3.7c-1.09,2.64-4.55,5.45-11,5.45-1.12,0-10.86-.37-10.86-13.12,0-6.31,6-15.65,18.88-15.65,12.69,0,20.27,11.3,20.27,22.23,0,17.53-11.42,27.59-31.32,27.59-20.31,0-34.19-13.79-39.91-25.6-6-12.48-4.43-26.54-3-38.95.93-8.09,1.81-15.74.38-21.88C150.19,97.67,145.51,93,139.47,93c-4.88,0-8.52,3-9.28,7.6a7.38,7.38,0,0,0,1.36,6c1.44,1.77,3.79,2.72,6.93,2.83a1.45,1.45,0,0,1,.78.49.8.8,0,0,1,.1.64c-.47,2.47-4.71,3.39-7.28,3.39l-.65,0c-.12,0-11.64-1-11.64-12.8s7.95-17.25,8.28-17.47a2,2,0,0,0,.86-2.15,2,2,0,0,0-1.76-1.53c-.34,0-1.41-.29-1.41-.65,0-.52,2.76-2,7-2,3.74,0,8.93,2.43,9,2.45a2,2,0,0,0,.85.19,2,2,0,0,0,1.9-2.62,17.74,17.74,0,0,1-.94-4.63h.16m0-2a3,3,0,0,0-1.62.46c-1.44.92.5,6.8.5,6.8s-5.58-2.64-9.83-2.64c-4,0-9,1.38-9,4,0,2.4,3.24,2.65,3.24,2.65s-9.21,5.88-9.21,19.15c0,11.31,9.58,14.5,13.49,14.79.24,0,.51,0,.8,0,3.09,0,8.51-1.11,9.24-5a3,3,0,0,0-2.73-3.48c-5.8-.21-6.93-3.49-6.43-6.56.55-3.36,3.1-5.92,7.31-5.92,5.93,0,9.32,5.39,10.59,10.84,3.48,14.88-7.54,39.94,2.78,61.24,6.89,14.24,22.38,26.73,41.71,26.73,23.74,0,33.32-13.55,33.32-29.59,0-12.19-8.74-24.23-22.27-24.23-14.7,0-20.88,10.93-20.88,17.65,0,11.9,7.89,15.12,12.86,15.12,12,0,15.65-9,12.1-12.57a4.94,4.94,0,0,0-3.72-1.56c-1.26,0-2.46.34-3.53.34a3.75,3.75,0,0,1-.68,0c-2.74-.49-2.66-3.47-2-4.69.84-1.61,3.09-2.66,5.77-2.66a10.93,10.93,0,0,1,1.27.07c4.87.59,8.71,5.86,8.71,10.36,0,11.41-8.44,16.17-18.27,16.17-17,0-24.89-16.61-24.89-25.45,0-24.45,17.75-31.21,26-39.82,1.14-1.19-1.24-3.55-5-3.55a10.44,10.44,0,0,0-1.62.14,8.2,8.2,0,0,0-5.58,4.41s-.44-3.31-3.34-3.31a6,6,0,0,0-2.55.67c-3.31,1.55-5.12,6.21-5.12,6.21a19.81,19.81,0,0,1,4.33-11.34c1.81-2.16,5.89-5.08,8.06-6.89,2-1.64,3.11-4.33,1.93-5.88a3,3,0,0,0-2.54-1.16,6.45,6.45,0,0,0-2.41.53s4.84-6.14,6.27-8.32c.43-.65.79-2.6-2.32-3a10.28,10.28,0,0,0-1.41-.1,8.38,8.38,0,0,0-5.32,1.9c-2.08,1.65-4,5.38-4,5.38a4.6,4.6,0,0,0-3.48-2.16l-.3,0c-2.77.25-3.93,3.08-4.66,4.41-1.31,2.39-3.53,10.33-3.53,10.33s-2.94-12.81-8.95-20c-3.48-4.19-9.14-10.42-13-10.42Z"/><path class="cls-2" d="M37.71,69.44C56,69.44,69.4,78.05,77.63,95c6,12.48,4.43,26.54,3,38.94-.93,8.1-1.81,15.75-.37,21.89,1.81,7.75,6.5,12.38,12.53,12.38,4.88,0,8.53-3,9.28-7.6a7.34,7.34,0,0,0-1.35-6c-1.45-1.77-3.79-2.72-6.94-2.83a1.4,1.4,0,0,1-.77-.49.72.72,0,0,1-.1-.64c.46-2.47,4.7-3.39,7.27-3.39.24,0,.46,0,.65,0s11.64,1,11.64,12.79c0,12-8,17.26-8.28,17.48a2,2,0,0,0-.86,2.15,2,2,0,0,0,1.77,1.52c.34,0,1.4.29,1.4.66,0,.52-2.76,2-7,2-3.73,0-8.92-2.43-9-2.45a2,2,0,0,0-.86-.2,2,2,0,0,0-1.32.5,2,2,0,0,0-.58,2.13,17.74,17.74,0,0,1,.94,4.63h-.15c-1,0-4.2-.94-11.47-9.69-5.62-6.76-8.51-19.08-8.54-19.21a2,2,0,0,0-1.9-1.55h-.05a2,2,0,0,0-1.92,1.47c-.6,2.14-2.37,8.11-3.36,9.91L61,170c-.79,1.51-1.54,2.76-2.83,2.88h-.12c-1,0-1.77-1.19-1.77-1.19h0a2,2,0,0,0-1.71-1h-.06a2,2,0,0,0-1.71,1.07,18.23,18.23,0,0,1-3.5,4.73A6.37,6.37,0,0,1,45.25,178a9.23,9.23,0,0,1-1.13-.08,3.22,3.22,0,0,1-.77-.18c1.54-2.27,6-7.89,6-7.94a2,2,0,0,0-1.58-3.24,2,2,0,0,0-.82.18,4.71,4.71,0,0,1-1.59.35c-.67,0-.86-.25-1-.37-.28-.38.2-2,1.62-3.14.56-.46,1.28-1,2-1.62a47.28,47.28,0,0,0,6.28-5.52,21.72,21.72,0,0,0,4.79-12.6,2,2,0,0,0-1.61-2,2.58,2.58,0,0,0-.39,0,2,2,0,0,0-1.86,1.28c-.43,1.09-2,4.14-4.11,5.13a4.13,4.13,0,0,1-1.7.47c-1.05,0-1.31-1.32-1.35-1.57a2,2,0,0,0-1.68-1.71l-.3,0a2,2,0,0,0-1.82,1.16,6.21,6.21,0,0,1-4.11,3.27,7,7,0,0,1-1.28.12,5.36,5.36,0,0,1-3-.78,75.27,75.27,0,0,1,6-5c8.92-7,20-15.72,20-35.6,0-9.27-8.12-27.45-26.89-27.45-12.51,0-20.28,7-20.28,18.18,0,5.24,4.3,11.59,10.47,12.34a12.75,12.75,0,0,0,1.51.09c3.45,0,6.34-1.43,7.54-3.73a5.89,5.89,0,0,0,.06-5,4.71,4.71,0,0,0-3.51-2.56,5.53,5.53,0,0,0-1-.09,13.29,13.29,0,0,0-1.92.19,12,12,0,0,1-1.62.16,3,3,0,0,1-2.3-1,3.37,3.37,0,0,1-.33-3.7c1.09-2.64,4.56-5.45,11-5.45,1.11,0,10.85.36,10.85,13.12,0,6.31-6,15.64-18.88,15.64C14,119.25,6.39,108,6.39,97c0-16,13.17-27.59,31.32-27.59m0-2C17.17,67.44,4.39,81,4.39,97c0,12.19,8.74,24.22,22.27,24.22,14.7,0,20.88-10.92,20.88-17.64,0-11.9-7.89-15.12-12.85-15.12-12,0-15.65,9-12.11,12.57a5,5,0,0,0,3.72,1.56c1.26,0,2.46-.35,3.54-.35a3.71,3.71,0,0,1,.67.06c2.74.49,2.67,3.47,2,4.69-.84,1.61-3.09,2.66-5.77,2.66a9.22,9.22,0,0,1-1.27-.08c-4.87-.58-8.71-5.86-8.71-10.35,0-11.41,8.44-16.18,18.28-16.18C52,83.07,60,99.69,60,108.52c0,24.46-17.75,31.22-26,39.83-1.13,1.19,1.24,3.55,5,3.55a9.21,9.21,0,0,0,1.62-.15,8.17,8.17,0,0,0,5.59-4.41s.43,3.31,3.33,3.31A6.12,6.12,0,0,0,52,150c3.32-1.55,5.12-6.22,5.12-6.22a19.88,19.88,0,0,1-4.32,11.35c-1.82,2.16-5.9,5.08-8.07,6.89-2,1.63-3.11,4.32-1.93,5.88a3,3,0,0,0,2.54,1.16,6.47,6.47,0,0,0,2.42-.53s-4.85,6.14-6.28,8.32c-.43.65-.78,2.6,2.33,3a10.13,10.13,0,0,0,1.4.1,8.34,8.34,0,0,0,5.32-1.91c2.09-1.64,4-5.37,4-5.37a4.6,4.6,0,0,0,3.48,2.15h.3c2.78-.25,3.94-3.08,4.67-4.41,1.31-2.4,3.53-10.34,3.53-10.34s2.94,12.82,8.94,20c3.49,4.19,9.14,10.41,13,10.41a3,3,0,0,0,1.61-.45c1.44-.92-.5-6.81-.5-6.81s5.59,2.65,9.83,2.65c4,0,9-1.39,9-4,0-2.4-3.23-2.65-3.23-2.65s9.2-5.88,9.2-19.16c0-11.3-9.58-14.49-13.49-14.79l-.8,0c-3.09,0-8.51,1.11-9.24,5a3,3,0,0,0,2.73,3.49c5.8.21,6.93,3.49,6.43,6.56-.55,3.35-3.09,5.92-7.31,5.92-5.92,0-9.31-5.39-10.59-10.84-3.48-14.89,7.54-39.95-2.77-61.24-6.9-14.24-19.5-26.73-41.72-26.73Z"/><path class="cls-2" d="M-77.9,72.41h0m.11.35c1,0,4.2.95,11.47,9.69,5.63,6.77,8.51,19.09,8.54,19.21a2,2,0,0,0,1.9,1.55h.05a2,2,0,0,0,1.92-1.46c.6-2.14,2.37-8.11,3.36-9.91l.27-.5c.78-1.51,1.53-2.76,2.82-2.88h.12c1,0,1.77,1.2,1.77,1.2h0a2,2,0,0,0,1.71,1h.07a2,2,0,0,0,1.7-1.08,18.37,18.37,0,0,1,3.5-4.72,6.37,6.37,0,0,1,4.08-1.48,7.82,7.82,0,0,1,1.14.08,3.24,3.24,0,0,1,.76.18c-1.54,2.27-6,7.88-6,7.94a2,2,0,0,0,0,2.47,2,2,0,0,0,1.58.77,2,2,0,0,0,.82-.18,4.47,4.47,0,0,1,1.59-.35c.67,0,.86.25,1,.37.28.37-.2,2-1.62,3.13-.56.47-1.28,1-2,1.63a48,48,0,0,0-6.28,5.51,21.77,21.77,0,0,0-4.79,12.61,2,2,0,0,0,1.61,2,2.56,2.56,0,0,0,.39,0,2,2,0,0,0,1.86-1.27c.43-1.09,2-4.15,4.11-5.13a4.2,4.2,0,0,1,1.7-.48c1.06,0,1.31,1.33,1.35,1.57a2,2,0,0,0,1.68,1.71,1.53,1.53,0,0,0,.3,0,2,2,0,0,0,1.82-1.16,6.27,6.27,0,0,1,4.11-3.28,8,8,0,0,1,1.28-.11,5.36,5.36,0,0,1,3,.78,75.27,75.27,0,0,1-6,5c-8.91,7-20,15.72-20,35.59,0,9.28,8.12,27.45,26.89,27.45,12.51,0,20.28-7,20.28-18.17,0-5.24-4.3-11.6-10.47-12.34a12.75,12.75,0,0,0-1.51-.09c-3.45,0-6.34,1.43-7.54,3.73a5.92,5.92,0,0,0-.06,5,4.73,4.73,0,0,0,3.51,2.56,6.59,6.59,0,0,0,1,.08,13.16,13.16,0,0,0,1.92-.18,12,12,0,0,1,1.62-.16,2.92,2.92,0,0,1,2.3,1,3.35,3.35,0,0,1,.33,3.7c-1.09,2.64-4.56,5.45-11,5.45-1.11,0-10.85-.37-10.85-13.12,0-6.31,6-15.65,18.88-15.65,12.69,0,20.27,11.3,20.27,22.23,0,17.53-11.42,27.59-31.32,27.59-20.31,0-34.19-13.79-39.91-25.6-6.05-12.48-4.43-26.54-3-38.95.93-8.09,1.81-15.74.38-21.88C-71.33,97.67-76,93-82,93c-4.88,0-8.52,3-9.28,7.6a7.34,7.34,0,0,0,1.35,6c1.45,1.77,3.8,2.72,6.94,2.83a1.4,1.4,0,0,1,.77.49.72.72,0,0,1,.1.64c-.46,2.47-4.7,3.39-7.27,3.39l-.65,0c-.12,0-11.64-1-11.64-12.8s8-17.25,8.28-17.47a2,2,0,0,0,.86-2.15,2,2,0,0,0-1.77-1.53c-.33,0-1.4-.29-1.4-.65,0-.52,2.76-2,7-2,3.74,0,8.92,2.43,9,2.45a2,2,0,0,0,.85.19,2,2,0,0,0,1.33-.5A2,2,0,0,0-77,77.4a17.74,17.74,0,0,1-.94-4.63h.15m0-2a3,3,0,0,0-1.61.46c-1.44.92.5,6.8.5,6.8s-5.59-2.64-9.83-2.64c-4,0-9,1.38-9,4,0,2.4,3.23,2.65,3.23,2.65s-9.2,5.88-9.2,19.15c0,11.31,9.58,14.5,13.49,14.79.24,0,.51,0,.8,0,3.09,0,8.51-1.11,9.24-5a3,3,0,0,0-2.73-3.48c-5.8-.21-6.93-3.49-6.43-6.56C-88.81,97.6-86.26,95-82,95c5.92,0,9.31,5.39,10.59,10.84,3.48,14.88-7.54,39.94,2.78,61.24,6.89,14.24,22.37,26.73,41.71,26.73,23.74,0,33.32-13.55,33.32-29.59C6.35,152.07-2.39,140-15.92,140-30.62,140-36.8,151-36.8,157.68c0,11.9,7.89,15.12,12.85,15.12,12,0,15.65-9,12.11-12.57a4.94,4.94,0,0,0-3.72-1.56c-1.26,0-2.46.34-3.54.34a3.71,3.71,0,0,1-.67,0c-2.74-.49-2.67-3.47-2-4.69.84-1.61,3.09-2.66,5.77-2.66a10.93,10.93,0,0,1,1.27.07C-9.89,152.27-6,157.54-6,162c0,11.41-8.44,16.17-18.28,16.17-17,0-24.89-16.61-24.89-25.45,0-24.45,17.75-31.21,26-39.82,1.14-1.19-1.24-3.55-5-3.55a10.23,10.23,0,0,0-1.62.14,8.2,8.2,0,0,0-5.59,4.41s-.43-3.31-3.33-3.31a6,6,0,0,0-2.55.67c-3.32,1.55-5.12,6.21-5.12,6.21a19.84,19.84,0,0,1,4.32-11.34c1.82-2.16,5.9-5.08,8.07-6.89,2-1.64,3.11-4.33,1.93-5.88a3,3,0,0,0-2.54-1.16,6.45,6.45,0,0,0-2.41.53s4.84-6.14,6.27-8.32c.43-.65.78-2.6-2.33-3a10.13,10.13,0,0,0-1.4-.1,8.38,8.38,0,0,0-5.32,1.9c-2.09,1.65-4,5.38-4,5.38a4.6,4.6,0,0,0-3.48-2.16l-.3,0c-2.77.25-3.94,3.08-4.66,4.41-1.32,2.39-3.53,10.33-3.53,10.33s-2.94-12.81-9-20c-3.49-4.19-9.14-10.42-13-10.42Z"/><path class="cls-2" d="M148.47-62.87c18.26,0,31.69,8.61,39.92,25.6,6,12.48,4.43,26.54,3,39-.93,8.09-1.81,15.74-.37,21.88,1.81,7.75,6.5,12.38,12.53,12.38,4.88,0,8.53-3,9.29-7.6a7.39,7.39,0,0,0-1.36-6c-1.45-1.76-3.79-2.72-6.94-2.83a1.4,1.4,0,0,1-.77-.49.72.72,0,0,1-.1-.64c.46-2.47,4.7-3.39,7.27-3.39l.65,0c.12,0,11.64,1,11.64,12.8S215.28,45,215,45.24a2,2,0,0,0-.86,2.15,2,2,0,0,0,1.77,1.53c.34,0,1.4.29,1.4.65,0,.52-2.76,2-7,2-3.73,0-8.92-2.43-9-2.45a2,2,0,0,0-.86-.19,2,2,0,0,0-1.9,2.62,17.81,17.81,0,0,1,.94,4.63h-.15c-1,0-4.2-.95-11.47-9.69-5.62-6.77-8.51-19.09-8.53-19.21a2,2,0,0,0-1.91-1.55h0a2,2,0,0,0-1.93,1.46c-.6,2.15-2.37,8.11-3.36,9.91l-.26.5c-.79,1.51-1.54,2.76-2.83,2.88h-.12c-1,0-1.77-1.2-1.77-1.2h0a2,2,0,0,0-1.71-1h-.06a2,2,0,0,0-1.71,1.08,18.16,18.16,0,0,1-3.5,4.73A6.41,6.41,0,0,1,156,45.65a7.73,7.73,0,0,1-1.14-.08,3.22,3.22,0,0,1-.77-.18c1.54-2.26,6-7.88,6-7.94a2,2,0,0,0-1.58-3.23,2,2,0,0,0-.82.17,4.47,4.47,0,0,1-1.59.35c-.67,0-.86-.25-.95-.37-.28-.37.2-2,1.62-3.13.56-.47,1.28-1,2-1.63a46,46,0,0,0,6.28-5.51,21.9,21.9,0,0,0,4.8-12.61,2,2,0,0,0-1.62-2,1.72,1.72,0,0,0-.39,0,2,2,0,0,0-1.86,1.27c-.43,1.09-2,4.15-4.11,5.13a4.21,4.21,0,0,1-1.69.48c-1.06,0-1.32-1.33-1.36-1.57a2,2,0,0,0-1.68-1.71,1.53,1.53,0,0,0-.3,0,2,2,0,0,0-1.82,1.16A6.21,6.21,0,0,1,151,17.48a8,8,0,0,1-1.28.11,5.36,5.36,0,0,1-3-.78,77.48,77.48,0,0,1,6-5c8.92-7,20-15.72,20-35.59,0-9.27-8.12-27.45-26.89-27.45-12.51,0-20.28,7-20.28,18.17,0,5.24,4.3,11.6,10.47,12.34a12.87,12.87,0,0,0,1.51.09c3.45,0,6.34-1.43,7.54-3.73a5.89,5.89,0,0,0,.06-5,4.72,4.72,0,0,0-3.51-2.56,6.59,6.59,0,0,0-1-.08,13.3,13.3,0,0,0-1.92.18,10.56,10.56,0,0,1-1.62.16,2.92,2.92,0,0,1-2.3-1,3.37,3.37,0,0,1-.33-3.7c1.09-2.64,4.56-5.45,11-5.45,1.11,0,10.85.37,10.85,13.12,0,6.31-6,15.65-18.88,15.65-12.69,0-20.27-11.3-20.27-22.22,0-16,13.18-27.6,31.32-27.6m0-2c-20.53,0-33.32,13.55-33.32,29.6,0,12.18,8.74,24.22,22.27,24.22C152.12-11,158.3-22,158.3-28.7c0-11.9-7.89-15.12-12.85-15.12-12,0-15.65,9-12.11,12.57a4.94,4.94,0,0,0,3.72,1.56c1.26,0,2.46-.34,3.54-.34a3.71,3.71,0,0,1,.67.05c2.75.49,2.67,3.48,2,4.69-.84,1.61-3.09,2.66-5.77,2.66a11.05,11.05,0,0,1-1.27-.07c-4.87-.59-8.71-5.86-8.71-10.36,0-11.41,8.44-16.17,18.28-16.17,17,0,24.89,16.61,24.89,25.45C170.72.67,153,7.43,144.69,16c-1.13,1.19,1.24,3.55,5,3.55a10.23,10.23,0,0,0,1.62-.14A8.17,8.17,0,0,0,156.92,15s.43,3.31,3.34,3.31a6,6,0,0,0,2.54-.67c3.32-1.55,5.13-6.21,5.13-6.21a19.89,19.89,0,0,1-4.33,11.34c-1.82,2.16-5.89,5.09-8.07,6.89-2,1.64-3.11,4.33-1.93,5.88a3,3,0,0,0,2.54,1.16,6.47,6.47,0,0,0,2.42-.53s-4.85,6.14-6.28,8.32c-.42.65-.78,2.6,2.33,3a10.16,10.16,0,0,0,1.41.1,8.37,8.37,0,0,0,5.31-1.9c2.09-1.65,4-5.38,4-5.38a4.62,4.62,0,0,0,3.48,2.16l.3,0c2.78-.25,3.94-3.08,4.67-4.41,1.31-2.39,3.53-10.33,3.53-10.33s2.94,12.81,8.94,20c3.49,4.18,9.14,10.41,13,10.41a2.93,2.93,0,0,0,1.61-.46c1.44-.92-.5-6.8-.5-6.8s5.59,2.64,9.83,2.64c4,0,9-1.38,9-4,0-2.39-3.23-2.65-3.23-2.65s9.2-5.88,9.2-19.15c0-11.3-9.58-14.5-13.49-14.79-.24,0-.51,0-.8,0-3.09,0-8.51,1.11-9.24,5a3,3,0,0,0,2.73,3.48c5.8.21,6.94,3.49,6.43,6.56-.55,3.36-3.09,5.92-7.31,5.92-5.92,0-9.31-5.39-10.59-10.84-3.48-14.88,7.54-39.94-2.77-61.24-6.9-14.24-19.5-26.73-41.72-26.73Z"/><path class="cls-2" d="M32.86-59.89h0m.11.35c1,0,4.2.94,11.47,9.69C50.07-43.09,53-30.77,53-30.64a2,2,0,0,0,1.9,1.55h0a2,2,0,0,0,1.92-1.46c.6-2.15,2.37-8.12,3.36-9.92l.27-.5c.78-1.5,1.53-2.76,2.82-2.88h.12c1,0,1.77,1.19,1.77,1.19h0a2,2,0,0,0,1.71,1H67a2,2,0,0,0,1.7-1.07,18.23,18.23,0,0,1,3.5-4.73A6.37,6.37,0,0,1,76.25-49a9.38,9.38,0,0,1,1.14.08,3.24,3.24,0,0,1,.76.18c-1.54,2.27-6,7.89-6,7.94a2,2,0,0,0,0,2.47,2,2,0,0,0,1.59.77,2,2,0,0,0,.81-.18,4.76,4.76,0,0,1,1.59-.34c.67,0,.86.24.95.36.28.38-.2,2-1.62,3.14-.56.46-1.28,1-2,1.62a46.78,46.78,0,0,0-6.29,5.52,21.72,21.72,0,0,0-4.79,12.6,2,2,0,0,0,1.61,2,2.58,2.58,0,0,0,.39,0,2,2,0,0,0,1.86-1.28c.43-1.09,2-4.14,4.11-5.13a4.17,4.17,0,0,1,1.7-.47c1.06,0,1.31,1.32,1.35,1.57A2,2,0,0,0,75-16.39l.31,0a2,2,0,0,0,1.81-1.16,6.24,6.24,0,0,1,4.11-3.27,7,7,0,0,1,1.28-.11,5.37,5.37,0,0,1,3,.77,77.49,77.49,0,0,1-6,5c-8.91,7-20,15.71-20,35.59,0,9.27,8.12,27.45,26.9,27.45,12.5,0,20.27-7,20.27-18.18,0-5.24-4.3-11.59-10.47-12.34a12.75,12.75,0,0,0-1.51-.09c-3.45,0-6.34,1.43-7.54,3.73a5.92,5.92,0,0,0-.06,5,4.69,4.69,0,0,0,3.51,2.56,5.56,5.56,0,0,0,1,.09,13.15,13.15,0,0,0,1.91-.19,12,12,0,0,1,1.62-.16,3,3,0,0,1,2.3,1,3.35,3.35,0,0,1,.33,3.7c-1.09,2.64-4.56,5.46-11,5.46C85.7,38.5,76,38.13,76,25.37c0-6.31,6-15.64,18.88-15.64C107.53,9.73,115.11,21,115.11,32c0,17.54-11.42,27.59-31.32,27.59-20.31,0-34.19-13.79-39.91-25.6C37.83,21.46,39.45,7.4,40.87-5c.93-8.1,1.81-15.75.38-21.88-1.82-7.76-6.5-12.39-12.54-12.39-4.88,0-8.52,3-9.28,7.6a7.41,7.41,0,0,0,1.35,6c1.45,1.77,3.8,2.72,6.94,2.84a1.37,1.37,0,0,1,.77.48.72.72,0,0,1,.1.64c-.46,2.47-4.7,3.39-7.27,3.39-.23,0-.45,0-.65,0S9-19.31,9-31.09C9-43,17-48.35,17.31-48.56a2,2,0,0,0,.86-2.16,2,2,0,0,0-1.76-1.52c-.34,0-1.41-.29-1.41-.66,0-.52,2.76-2,7-2,3.74,0,8.93,2.43,9,2.45a2,2,0,0,0,.85.2,2,2,0,0,0,1.33-.5,2,2,0,0,0,.57-2.13,17.68,17.68,0,0,1-.94-4.62H33m0-2a3,3,0,0,0-1.62.45c-1.44.92.5,6.81.5,6.81S26.28-56.93,22-56.93c-4,0-9,1.39-9,4,0,2.4,3.23,2.65,3.23,2.65S7-44.37,7-31.09C7-19.79,16.61-16.6,20.52-16.3l.8,0c3.09,0,8.51-1.11,9.24-5a3,3,0,0,0-2.73-3.49C22-25,20.9-28.28,21.4-31.34c.55-3.36,3.1-5.93,7.31-5.93,5.93,0,9.31,5.39,10.59,10.84,3.48,14.89-7.54,40,2.78,61.25C49,49.05,64.46,61.54,83.79,61.54c23.74,0,33.32-13.54,33.32-29.59,0-12.19-8.74-24.22-22.27-24.22C80.14,7.73,74,18.65,74,25.37c0,11.9,7.89,15.13,12.85,15.13,12,0,15.66-9,12.11-12.57a5,5,0,0,0-3.72-1.57c-1.26,0-2.46.35-3.53.35a3.74,3.74,0,0,1-.68-.06c-2.74-.49-2.67-3.47-2-4.69.84-1.6,3.09-2.66,5.77-2.66a11,11,0,0,1,1.27.08c4.87.59,8.71,5.86,8.71,10.35,0,11.42-8.44,16.18-18.27,16.18-17,0-24.9-16.62-24.9-25.45,0-24.45,17.75-31.22,26-39.83,1.14-1.18-1.24-3.54-5-3.54a9.26,9.26,0,0,0-1.62.14,8.2,8.2,0,0,0-5.59,4.41s-.43-3.31-3.33-3.31a6.12,6.12,0,0,0-2.55.66c-3.32,1.55-5.12,6.22-5.12,6.22a19.81,19.81,0,0,1,4.33-11.34c1.81-2.17,5.89-5.09,8.06-6.89,2-1.64,3.11-4.33,1.93-5.89a3,3,0,0,0-2.54-1.15,6.55,6.55,0,0,0-2.41.52s4.84-6.14,6.27-8.31c.43-.66.78-2.61-2.32-3a10.28,10.28,0,0,0-1.41-.1,8.34,8.34,0,0,0-5.32,1.91c-2.08,1.64-4,5.37-4,5.37a4.6,4.6,0,0,0-3.48-2.15h-.3c-2.77.25-3.93,3.08-4.66,4.41-1.32,2.4-3.53,10.34-3.53,10.34s-2.94-12.82-9-20c-3.48-4.19-9.14-10.41-13-10.41Z"/><path class="cls-2" d="M-73-62.87c18.26,0,31.68,8.61,39.91,25.6,6.05,12.48,4.44,26.54,3,39-.93,8.09-1.81,15.74-.37,21.88C-28.69,31.31-24,35.94-18,35.94c4.88,0,8.52-3,9.28-7.6a7.35,7.35,0,0,0-1.35-6c-1.45-1.76-3.8-2.72-6.94-2.83a1.4,1.4,0,0,1-.77-.49.72.72,0,0,1-.1-.64c.46-2.47,4.7-3.39,7.27-3.39l.65,0c.12,0,11.64,1,11.64,12.8S-6.24,45-6.57,45.24a2,2,0,0,0-.86,2.15,2,2,0,0,0,1.77,1.53c.33,0,1.4.29,1.4.65,0,.52-2.76,2-7,2-3.74,0-8.92-2.43-9-2.45a2,2,0,0,0-.85-.19,2,2,0,0,0-1.33.5A2,2,0,0,0-23,51.58a17.81,17.81,0,0,1,.94,4.63h-.15c-1,0-4.2-.95-11.47-9.69-5.63-6.77-8.51-19.09-8.54-19.21a2,2,0,0,0-1.9-1.55h0a2,2,0,0,0-1.92,1.46c-.6,2.15-2.37,8.11-3.36,9.91l-.27.5c-.78,1.51-1.53,2.76-2.82,2.88h-.12c-1,0-1.77-1.2-1.77-1.2h0a2,2,0,0,0-1.71-1h-.07a2,2,0,0,0-1.7,1.08,18.4,18.4,0,0,1-3.5,4.73,6.42,6.42,0,0,1-4.08,1.47,7.82,7.82,0,0,1-1.14-.08,3.24,3.24,0,0,1-.76-.18c1.54-2.26,6-7.88,6-7.94a2,2,0,0,0,0-2.46A2,2,0,0,0-63,34.22a2,2,0,0,0-.82.17,4.47,4.47,0,0,1-1.59.35c-.67,0-.86-.25-1-.37-.28-.37.2-2,1.62-3.13.56-.47,1.28-1,2-1.63a47.25,47.25,0,0,0,6.28-5.51A21.77,21.77,0,0,0-51.6,11.49a2,2,0,0,0-1.61-2,1.72,1.72,0,0,0-.39,0,2,2,0,0,0-1.86,1.27c-.43,1.09-2,4.15-4.11,5.13a4.2,4.2,0,0,1-1.7.48c-1,0-1.31-1.33-1.35-1.57a2,2,0,0,0-1.68-1.71l-.3,0a2,2,0,0,0-1.82,1.16,6.24,6.24,0,0,1-4.11,3.28,8,8,0,0,1-1.28.11,5.36,5.36,0,0,1-3-.78,77.48,77.48,0,0,1,6-5c8.91-7,20-15.72,20-35.59,0-9.27-8.12-27.45-26.89-27.45-12.51,0-20.28,7-20.28,18.17,0,5.24,4.3,11.6,10.47,12.34a12.75,12.75,0,0,0,1.51.09c3.45,0,6.34-1.43,7.54-3.73a5.92,5.92,0,0,0,.06-5,4.73,4.73,0,0,0-3.51-2.56,6.59,6.59,0,0,0-1-.08,13.3,13.3,0,0,0-1.92.18,10.56,10.56,0,0,1-1.62.16,2.92,2.92,0,0,1-2.3-1,3.35,3.35,0,0,1-.33-3.7c1.09-2.64,4.56-5.45,11-5.45,1.11,0,10.85.37,10.85,13.12,0,6.31-6,15.65-18.88,15.65-12.69,0-20.27-11.3-20.27-22.22,0-16,13.17-27.6,31.32-27.6m0-2c-20.54,0-33.32,13.55-33.32,29.6C-106.37-23.09-97.63-11-84.1-11-69.4-11-63.22-22-63.22-28.7c0-11.9-7.89-15.12-12.85-15.12-12,0-15.65,9-12.11,12.57a4.94,4.94,0,0,0,3.72,1.56c1.26,0,2.46-.34,3.54-.34a3.71,3.71,0,0,1,.67.05c2.74.49,2.67,3.48,2,4.69-.84,1.61-3.09,2.66-5.77,2.66a11.05,11.05,0,0,1-1.27-.07C-90.13-23.29-94-28.56-94-33.06c0-11.41,8.44-16.17,18.28-16.17,17,0,24.89,16.61,24.89,25.45C-50.8.67-68.55,7.43-76.83,16c-1.14,1.19,1.24,3.55,5,3.55a10.23,10.23,0,0,0,1.62-.14A8.17,8.17,0,0,0-64.6,15s.43,3.31,3.33,3.31a6,6,0,0,0,2.55-.67c3.32-1.55,5.12-6.21,5.12-6.21a19.84,19.84,0,0,1-4.32,11.34C-59.74,25-63.82,27.9-66,29.7c-2,1.64-3.11,4.33-1.93,5.88a3,3,0,0,0,2.54,1.16A6.53,6.53,0,0,0-63,36.21s-4.85,6.14-6.28,8.32c-.43.65-.78,2.6,2.33,3a10.13,10.13,0,0,0,1.4.1,8.38,8.38,0,0,0,5.32-1.9c2.09-1.65,4-5.38,4-5.38a4.6,4.6,0,0,0,3.48,2.16l.3,0c2.77-.25,3.94-3.08,4.67-4.41,1.31-2.39,3.52-10.33,3.52-10.33s2.95,12.81,8.95,20c3.49,4.18,9.14,10.41,13,10.41a3,3,0,0,0,1.61-.46c1.44-.92-.5-6.8-.5-6.8s5.59,2.64,9.83,2.64c4,0,9-1.38,9-4,0-2.39-3.23-2.65-3.23-2.65S3.71,41,3.71,27.77c0-11.3-9.58-14.5-13.49-14.79-.24,0-.51,0-.8,0-3.09,0-8.51,1.11-9.24,5a3,3,0,0,0,2.73,3.48c5.8.21,6.93,3.49,6.43,6.56-.55,3.36-3.1,5.92-7.31,5.92-5.92,0-9.31-5.39-10.59-10.84C-32,8.22-21-16.84-31.34-38.14-38.23-52.38-50.83-64.87-73-64.87Z"/></pattern></defs><g id="Camada_2" data-name="Camada 2"><g id="Camada_1-2" data-name="Camada 1"><rect class="cls-3" width="1920" height="3000"/></g></g></svg>