<svg xmlns="http://www.w3.org/2000/svg" viewBox="0 0 1825.27 1097.02"><defs><style>.cls-1{fill:#aa1703;}</style></defs><g id="Camada_2" data-name="Camada 2"><g id="Camada_1-2" data-name="Camada 1"><path class="cls-1" d="M1524.39,1097c-92,0-172.2-24.24-238.39-72-55.34-40-100.85-96.24-135.26-167.28C1094.38,741.38,1109,614,1121.93,501.63c7.9-68.73,15.36-133.66,3.8-183.08-4.86-20.77-25.32-88.54-84.61-88.54-30.28,0-51.12,16.77-55.74,44.85-1.53,9.31-1.67,22.46,6.36,32.27,7.74,9.46,21.85,14.62,42,15.35,7.27.27,18.39,4.67,25.63,13.71,6.06,7.57,8.26,16.88,6.39,26.95-8.06,43.29-68.9,52.92-97.11,50.79-20.1-1.51-50.79-10.3-76.61-30.43-32.44-25.29-49.59-62.57-49.59-107.81,0-62.48,22.85-106.68,42-132.77a201.65,201.65,0,0,1,28.78-31.65c-9.69-4.64-18.45-13-18.45-26.89,0-10.07,5.52-24.19,31.8-34.34,15.72-6.08,36.12-9.56,56-9.56,25.33,0,55.12,9.87,73.26,17-.8-3.28-1.6-6.83-2.3-10.47-4.41-22.86-2.41-36.1,6.3-41.66,17.78-11.35,42.4-4.44,73.16,20.56,19.2,15.6,40.87,38,66.24,68.54,37.13,44.65,60.92,111.67,72.32,149.94,6.77-22.1,16.2-50.75,23.16-63.44.65-1.18,1.33-2.5,2.07-3.93,6.69-12.84,19.14-36.76,45.54-39.16,14.46-1.31,25.55,5.84,32.57,12.49,6.89-11.42,18.74-29,31.5-39.09,19.29-15.18,40.68-20.93,65.38-17.59,18.08,2.44,25.29,10.46,28.17,16.76a24.67,24.67,0,0,1-1.79,22.89c-8,12.16-27.45,37.59-41.07,55.14h.26c10,0,21,3,28.93,13.56,14,18.5,1.68,46.71-18.31,63.29-5.21,4.33-11.64,9.37-18.44,14.7-17.89,14-40.16,31.49-51.26,44.69-13.88,16.48-22.4,34.75-27.64,50.77,6.8-7.58,15-14.52,24.52-19,17-8,31.52-8.77,43.15-2.4a37.21,37.21,0,0,1,14.17,14.29c8.71-10.94,23.48-24.27,45.48-28.06,32.22-5.54,60,7.13,68.16,22.58,4.1,7.72,3.22,15.78-2.34,21.57-16.9,17.58-38,34.18-60.4,51.76-73.77,58-165.59,130.1-165.59,291.8,0,32,13.51,86.69,51.56,135.49,28.23,36.18,78.61,79.31,158.34,79.31,95.09,0,151.86-49.88,151.86-133.42,0-34.26-30.12-77.71-69-82.4-23.81-2.87-46.19,4.76-53.2,18.16-2.14,4.09-3.68,13.46-.2,20.56,2.22,4.53,6.13,7.24,12,8.28,4.83.86,11,0,17.47-1,15.49-2.28,36.7-5.38,56.61,14.53,14.73,14.73,18,38.06,8.54,60.89-12.8,30.91-51.25,63.93-120.77,63.93-13.59,0-48.43-2.86-78.36-29.32-28.1-24.84-43-63.53-43-111.9,0-35.33,17.47-75.7,45.58-105.38,25-26.43,70.74-58,146.19-58,57.73,0,110.53,24.56,148.66,69.16,35.09,41,55.22,96.4,55.22,151.88,0,77-24.39,142.24-70.54,188.65-25.21,25.35-56.8,45-93.9,58.27C1621.51,1089.86,1575.6,1097,1524.39,1097ZM1041.12,213c26.26,0,49.84,11.26,68.2,32.58,19.09,22.17,28.47,49.81,33,69.09,12.24,52.31,4.62,118.66-3.46,188.9-12.65,110.08-27,234.84,27.21,346.71C1216.82,955.08,1320.2,1080,1524.39,1080c180.4,0,283.86-91.55,283.86-251.17,0-100.28-69.9-204-186.86-204-69.4,0-111.08,28.63-133.83,52.64-30.17,31.84-40.92,69.26-40.92,93.67,0,120.71,93.62,124.2,104.29,124.2,61.14,0,94.35-27.6,105-53.42,6.77-16.35,4.91-32.58-4.85-42.35-13.87-13.86-27.59-11.85-42.11-9.72-7.56,1.11-15.38,2.25-22.93.9-14.18-2.53-21-10.93-24.25-17.53-5.85-11.93-4.22-27.11.4-36,10.49-20.06,38.75-31,70.32-27.17,22.28,2.69,43.54,15.37,59.87,35.69,15.29,19,24.06,42.22,24.06,63.61,0,49.19-17.66,89-51.08,115.22-29.4,23-70.13,35.22-117.8,35.22-86.6,0-141.2-46.7-171.76-85.87-33.5-43-55.16-100.25-55.16-146,0-170,95.43-244.94,172.1-305.18,21.89-17.2,42.56-33.45,58.64-50.18a.85.85,0,0,0,.15-.18c0-.29-.42-2.3-3.38-5.15-8.06-7.77-25.85-14-47.43-10.24-29.23,5-42.59,33.54-42.72,33.83l-12.33,26.94-3.86-29.35c0-.1-2.12-14.25-11.88-19.54-6.6-3.57-15.91-2.59-27.68,2.92-25.62,12-40.5,49.55-40.65,49.93l-17.07,43.78.63-47c0-2.39,1.22-58.87,40-104.9,12.24-14.54,34.3-31.85,53.77-47.12,6.71-5.26,13-10.23,18.08-14.4,14.73-12.23,22.17-31.25,15.6-39.93-10-13.25-32.93-3-33.16-2.93l-32,14.56,21.73-27.56c.42-.54,42.43-53.81,54.63-72.39a7.61,7.61,0,0,0,.52-6.48c-1.52-3.34-7-5.88-15-7-12.69-1.71-32-2.12-52.58,14.11-16.64,13.1-32.94,44.12-33.1,44.43l-7,13.37-7.84-12.88c-.09-.13-10.2-16.12-25.14-14.75-17.14,1.56-25.72,18-32,30.07-.8,1.54-1.55,3-2.25,4.25-10.91,19.92-30,88.19-30.23,88.88l-9,32.23-7.5-32.61c-.25-1.11-26-111.23-76.77-172.3C1111,14.94,1080.69,12.54,1069.24,19.48c-.48.91-2.71,6.6,1.37,26.44,2.55,12.36,6.21,23.52,6.24,23.63l6.21,18.85-17.93-8.5c-.47-.22-47.77-22.4-82.62-22.4-37,0-70.74,12.81-70.74,26.88,0,12.84,20.36,14.72,20.56,14.74l25,2.13-21.1,13.51c-.29.19-19.58,12.82-38.55,38.85-25.39,34.84-38.27,75.91-38.27,122.08,0,40.37,14.48,72.13,43,94.39,22.85,17.82,50.6,25.62,67.42,26.88,24.83,1.88,73.53-7,79.1-36.94,1-5.19,0-9.51-3-13.19-4-5-10.41-7.25-13-7.34-25.19-.91-43.53-8.17-54.5-21.58-9.54-11.66-13-27.5-10-45.81,2.8-17.08,10.71-31.64,22.86-42.1C1004.35,218.87,1021.53,213,1041.12,213Z"/><path class="cls-1" d="M746.93,1097c-15.13,0-33.4-8.64-54.59-25.86-19.2-15.6-40.87-38-66.24-68.54C589,958,565.18,890.93,553.78,852.66c-6.77,22.1-16.2,50.75-23.16,63.44-.65,1.18-1.33,2.5-2.07,3.92-6.69,12.85-19.14,36.77-45.54,39.17-14.47,1.31-25.55-5.84-32.57-12.49-6.89,11.42-18.74,29-31.5,39.09-19.29,15.18-40.68,20.93-65.38,17.59-18.08-2.44-25.29-10.46-28.16-16.76a24.64,24.64,0,0,1,1.78-22.89c8-12.16,27.45-37.59,41.07-55.14-10,0-21.14-2.93-29.19-13.56-14-18.5-1.68-46.71,18.31-63.29,5.21-4.33,11.64-9.37,18.45-14.71,17.88-14,40.15-31.49,51.25-44.68,13.88-16.48,22.4-34.75,27.64-50.77-6.8,7.58-15,14.52-24.52,19-17,8-31.52,8.77-43.15,2.4a37.21,37.21,0,0,1-14.17-14.29c-8.71,10.94-23.48,24.27-45.48,28.06-32.22,5.54-60-7.13-68.16-22.58-4.1-7.72-3.22-15.78,2.34-21.57,16.9-17.58,38-34.18,60.4-51.76,73.77-58,165.59-130.1,165.59-291.8,0-32-13.51-86.69-51.56-135.49-28.23-36.18-78.6-79.31-158.34-79.31-95.09,0-151.86,49.88-151.86,133.42,0,34.25,30.12,77.71,69,82.4,23.82,2.88,46.19-4.76,53.2-18.16,2.14-4.09,3.68-13.46.2-20.56-2.22-4.53-6.13-7.24-12-8.28-4.83-.86-11,0-17.47,1-15.49,2.28-36.7,5.38-56.61-14.53-14.73-14.73-18-38.06-8.54-60.89,12.8-30.91,51.25-63.93,120.77-63.93,13.59,0,48.43,2.86,78.36,29.32,28.1,24.84,42.95,63.53,42.95,111.9,0,35.32-17.47,75.7-45.58,105.38-25.05,26.43-70.74,58-146.19,58-57.73,0-110.53-24.56-148.66-69.16C20.13,379,0,323.67,0,268.19,0,191.18,24.39,126,70.54,79.54c25.21-25.35,56.8-44.95,93.9-58.27C203.76,7.16,249.67,0,300.88,0c92,0,172.2,24.24,238.39,72,55.34,40,100.85,96.24,135.26,167.28C730.89,355.64,716.25,483,703.34,595.39c-7.9,68.73-15.36,133.66-3.8,183.08C704.4,799.24,724.86,867,784.15,867c30.28,0,51.12-16.76,55.74-44.84,1.53-9.31,1.67-22.46-6.36-32.27-7.74-9.46-21.85-14.62-41.95-15.35-7.27-.26-18.38-4.67-25.63-13.71-6.05-7.57-8.27-16.88-6.39-27,8.06-43.29,68.9-52.92,97.11-50.8,20.1,1.52,50.79,10.31,76.61,30.44,32.44,25.29,49.59,62.57,49.59,107.81,0,62.48-22.85,106.68-42,132.76a201.34,201.34,0,0,1-28.78,31.66c9.69,4.64,18.45,13,18.45,26.89,0,10.07-5.52,24.19-31.8,34.34-15.72,6.08-36.12,9.56-56,9.56-25.33,0-55.12-9.87-73.26-17,.8,3.28,1.6,6.83,2.3,10.47,4.41,22.86,2.41,36.1-6.3,41.66A33.81,33.81,0,0,1,746.93,1097Zm-192-310.19,7.5,32.61c.25,1.11,26,111.23,76.76,172.3,75.13,90.36,105.4,92.76,116.85,85.82.48-.92,2.72-6.63-1.4-26.58-2.56-12.35-6.18-23.38-6.21-23.49l-6.22-18.85,17.94,8.5c.47.22,47.77,22.4,82.62,22.4,37,0,70.74-12.81,70.74-26.88,0-12.84-20.36-14.72-20.56-14.74l-25-2.13L889,982.26c.29-.19,19.57-12.82,38.55-38.85,25.39-34.84,38.27-75.91,38.27-122.08,0-40.37-14.48-72.13-43-94.39-22.85-17.82-50.6-25.62-67.42-26.88-24.83-1.88-73.53,7-79.1,36.94-1,5.19,0,9.51,3,13.19,4,5,10.41,7.25,13,7.34,25.2.91,43.54,8.17,54.51,21.58,9.54,11.66,13,27.5,10,45.81C853.88,842,846,856.56,833.82,867c-12.91,11.13-30.08,17-49.67,17-26.26,0-49.84-11.26-68.2-32.58-19.09-22.17-28.47-49.81-33-69.09-12.24-52.31-4.62-118.66,3.46-188.9,12.65-110.08,27-234.84-27.21-346.71C608.45,141.94,505.07,17,300.88,17,120.48,17,17,108.57,17,268.19c0,100.28,69.9,204,186.86,204,69.4,0,111.08-28.63,133.83-52.64,30.17-31.84,40.92-69.26,40.92-93.67,0-120.71-93.62-124.2-104.29-124.2-61.14,0-94.35,27.59-105,53.42-6.77,16.35-4.91,32.58,4.85,42.34,13.87,13.87,27.59,11.86,42.11,9.73,7.56-1.11,15.38-2.25,22.93-.9,14.18,2.53,21,10.93,24.25,17.53,5.85,11.93,4.22,27.11-.4,35.95-10.49,20.06-38.75,31-70.32,27.17-22.28-2.69-43.54-15.37-59.87-35.69-15.29-19-24.06-42.22-24.06-63.61,0-49.19,17.66-89,51.08-115.22,29.4-23,70.13-35.22,117.8-35.22,86.6,0,141.2,46.69,171.76,85.87,33.5,43,55.16,100.25,55.16,146,0,170-95.42,244.94-172.1,305.18-21.89,17.2-42.56,33.45-58.64,50.18a.85.85,0,0,0-.15.18c0,.29.42,2.3,3.38,5.15,8.06,7.77,25.85,14,47.43,10.24,29.23-5,42.59-33.54,42.72-33.83l12.33-27,3.86,29.36c0,.1,2.12,14.25,11.88,19.54,6.6,3.57,15.91,2.59,27.68-2.92,25.62-12,40.5-49.55,40.65-49.93l17.06-43.78-.62,47c0,2.39-1.22,58.87-40,104.9-12.23,14.54-34.3,31.85-53.77,47.12-6.71,5.26-13.05,10.23-18.08,14.4-14.73,12.23-22.17,31.25-15.6,39.93,10,13.26,32.93,3,33.16,2.93l32-14.56L396,900.69c-.42.54-42.43,53.81-54.63,72.39a7.61,7.61,0,0,0-.52,6.48c1.52,3.34,7,5.88,15,7,12.69,1.71,32,2.12,52.58-14.11,16.64-13.1,32.94-44.12,33.1-44.43l7-13.37,7.84,12.88c.09.13,10.19,16.11,25.14,14.75,17.14-1.56,25.72-18,32-30.07.8-1.54,1.55-3,2.25-4.25,10.91-19.92,30-88.19,30.23-88.88Z"/></g></g></svg>