<svg xmlns="http://www.w3.org/2000/svg" viewBox="0 0 1808.25 1080"><defs><style>.cls-1{fill:#aa1703;}</style></defs><g id="Camada_2" data-name="Camada 2"><g id="Camada_1-2" data-name="Camada 1"><path class="cls-1" d="M923.13,99.09S842.4,150.7,842.4,267.18c0,99.16,84.05,127.18,118.33,129.76,24.8,1.86,81.1-6.27,88.1-43.87,3.87-20.77-15.55-30.29-24-30.59-50.87-1.85-60.82-30.6-56.4-57.51,4.85-29.46,27.16-52,64.14-52,52,0,81.72,47.31,92.9,95.11,30.55,130.62-66.16,350.51,24.38,537.38,60.5,124.89,171,234.52,366,234.52,208.32,0,292.37-118.86,292.37-259.68,0-106.9-76.67-212.53-195.37-212.53-129,0-183.26,95.84-183.26,154.82,0,104.45,69.26,132.71,112.8,132.71,105.43,0,137.34-79.17,106.21-110.29-24.83-24.84-50.2-7.73-69.56-11.18-24.07-4.3-23.4-30.47-17.8-41.17,8.5-16.25,33.46-26.07,61.76-22.66,42.76,5.16,76.44,51.41,76.44,90.85,0,100.15-74.06,141.93-160.37,141.93-148.92,0-218.41-145.8-218.41-223.31,0-214.54,155.75-273.89,228.37-349.46,11.33-11.8-17.14-36.93-58.25-29.86-34.28,5.9-49,38.71-49,38.71s-5.85-44.65-51.61-23.23c-29.12,13.64-45,54.56-45,54.56s.73-55.29,38-99.53c16-19,51.7-44.63,70.77-60.45,17.33-14.38,27.28-38,17-51.61-14.38-19-43.5-5.53-43.5-5.53s42.52-53.88,55.06-73c3.75-5.7,6.87-22.85-20.41-26.54-15.23-2.06-36.49-1.84-59,15.85-18.32,14.42-35.39,47.19-35.39,47.19s-12.58-20.68-33.17-18.8c-24.33,2.21-34.52,27-40.92,38.7-11.51,21-31,90.68-31,90.68s-25.81-112.43-78.52-175.83C1149,49,1088.54-16.9,1055.84,4c-12.62,8.06,4.42,59.72,4.42,59.72s-49-23.22-86.26-23.22c-35.39,0-79.25,12.16-79.25,35.39C894.75,96.88,923.13,99.09,923.13,99.09Z"/><path class="cls-1" d="M885.12,980.91s80.73-51.61,80.73-168.09c0-99.16-84.05-127.18-118.33-129.76-24.8-1.86-81.1,6.27-88.1,43.87-3.87,20.77,15.55,30.29,24,30.59,50.87,1.85,60.82,30.6,56.4,57.51-4.85,29.46-27.16,52-64.14,52-52,0-81.72-47.31-92.9-95.11-30.55-130.62,66.16-350.51-24.38-537.38C597.86,109.63,487.31,0,292.37,0,84.05,0,0,118.86,0,259.68c0,106.9,76.67,212.53,195.37,212.53,129,0,183.26-95.84,183.26-154.82,0-104.45-69.26-132.71-112.8-132.71-105.43,0-137.34,79.17-106.22,110.29,24.84,24.84,50.21,7.73,69.57,11.18,24.07,4.3,23.39,30.47,17.8,41.17-8.5,16.25-33.46,26.07-61.76,22.66-42.76-5.16-76.44-51.41-76.44-90.85,0-100.15,74.06-141.93,160.36-141.93,148.93,0,218.42,145.8,218.42,223.31,0,214.54-155.75,273.89-228.37,349.46-11.34,11.8,17.14,36.93,58.24,29.86,34.29-5.9,49-38.71,49-38.71s5.85,44.65,51.61,23.23c29.12-13.64,45-54.56,45-54.56s-.74,55.29-38,99.53c-15.95,19-51.7,44.63-70.77,60.45-17.33,14.38-27.28,38-17,51.61,14.38,19,43.5,5.53,43.5,5.53s-42.52,53.88-55.06,73c-3.75,5.7-6.87,22.85,20.41,26.54,15.22,2.06,36.49,1.84,59-15.85,18.32-14.42,35.39-47.19,35.39-47.19s12.58,20.68,33.17,18.8c24.33-2.21,34.52-27,40.92-38.7,11.51-21,31-90.68,31-90.68s25.81,112.43,78.52,175.83C659.3,1031,719.71,1096.9,752.41,1076,765,1068,748,1016.3,748,1016.3s49,23.22,86.26,23.22c35.38,0,79.25-12.16,79.25-35.39C913.5,983.12,885.12,980.91,885.12,980.91Z"/></g></g></svg>