<svg xmlns="http://www.w3.org/2000/svg" viewBox="0 0 2000 256.11"><defs><style>.cls-1{fill:#1c1110;}</style></defs><g id="Camada_2" data-name="Camada 2"><g id="Camada_1-2" data-name="Camada 1"><polygon class="cls-1" points="150.73 246.87 150.73 252.04 155.89 252.04 187.13 252.04 192.29 252.04 192.29 246.87 192.29 5.17 192.29 0 187.13 0 150.46 0 146.53 0 145.48 3.79 100.5 166.87 98.69 173.43 96.76 166.9 48.48 3.7 47.38 0 43.53 0 5.17 0 0 0 0 5.17 0 246.87 0 252.04 5.17 252.04 18.74 252.04 23.91 252.04 23.91 246.87 23.91 77.2 23.91 64.01 27.71 76.64 80.68 252.44 81.78 256.11 85.62 256.11 93.77 256.11 97.7 256.11 98.75 252.33 146.91 78.35 150.73 64.56 150.73 78.87 150.73 246.87"/><path class="cls-1" d="M323.18,90.49h-2.34V178a90.14,90.14,0,0,1-5.06,30.88c-3.31,9.06-7.94,16.3-13.77,21.51A28.1,28.1,0,0,1,282.62,238c-8.56,0-14.42-3-17.91-9.2-3.69-6.52-5.56-14.59-5.56-24V90.49H230.33V198.43c0,14.49,3.58,27.12,10.63,37.51,7.23,10.69,19.56,16.11,36.63,16.11a45.86,45.86,0,0,0,26.47-8.29c6.42-4.44,12.05-10.8,16.78-19V248h28.81V90.49H323.18Z"/><path class="cls-1" d="M651.88,191.06h-2l-.3,2c-2.36,15.89-7.91,27.71-16.48,35.12s-17.8,11.16-27.46,11.16c-13.68,0-23.24-6-29.24-18.46s-9.09-29.14-9.31-49.94h81.12c4.29,0,7.18-.45,9.1-1.42,1.66-.84,3.63-2.72,3.63-6.95a108.36,108.36,0,0,0-6-35.46,65.47,65.47,0,0,0-19.64-29c-9.11-7.71-20.9-11.62-35-11.62a56.61,56.61,0,0,0-34.76,11.7,77.89,77.89,0,0,0-24,30.74,99.23,99.23,0,0,0-8.59,41c0,25.5,6.58,45.77,19.54,60.23s30.47,21.89,51.86,21.89c16.46,0,30.06-5.6,40.42-16.66s16.17-25,17.55-41.8l.21-2.53H651.88ZM599.58,99.2c9.75,0,16.6,5.54,20.95,16.93s6.67,25.57,6.87,42.08H567.08c.25-16.22,3.16-30.25,8.64-41.74S589.07,99.2,599.58,99.2Z"/><path class="cls-1" d="M783.52,90.49h-2.34V178a90,90,0,0,1-5,30.87c-3.32,9.09-8,16.33-13.77,21.52A28.12,28.12,0,0,1,743,238c-8.55,0-14.41-3-17.9-9.2-3.7-6.55-5.57-14.62-5.57-24V90.49H690.68V198.43c0,14.49,3.57,27.12,10.62,37.51,7.25,10.69,19.58,16.11,36.63,16.11a45.8,45.8,0,0,0,26.48-8.29c6.42-4.44,12-10.81,16.77-19V248H810V90.49H783.52Z"/><path class="cls-1" d="M476.35,164.22l-18.24-9.3-10-5.15-4.74-2.41c-9.22-4.66-21.84-11.05-26.17-14.93-4.78-4.26-6.68-9-5.82-14.45,1-6.35,4.44-10.82,10.48-13.66,4.53-2.13,10.75-3.26,18-3.26,2.13,0,4.34.09,6.56.29,16.14,1.42,34.39,9.59,37.19,28.29l.3,2h2l8.09,0h2.53l-.2-2.51c-1.22-15.93-9.57-27.54-25.51-35.49-6.2-3.09-16.49-6.57-24.41-6.89-3.84-.16-6.87-.24-9.54-.24h0c-12,0-20.13,1.61-28,5.55-11.41,5.72-18.3,15.65-20.49,29.51-1.69,10.81,4.65,26.52,13.57,33.64,15.55,12.39,36.27,22.88,47.41,28.52,3.05,1.54,5.46,2.76,6.88,3.57a55.05,55.05,0,0,1,14.94,11.65c6.76,7.64,6.29,21.26-1,28-5,4.68-12,9.47-25.24,9.47a71.73,71.73,0,0,1-10.32-.82c-7.18-1.07-36.86-13.52-40.07-51.13l-.19-2.14h-12.7l.14,2.48c2,35.35,19.6,52.19,34,60.09,10.83,5.94,23.65,7.18,32.5,7.18,13.28,0,26.71-2.85,35.92-7.63,13-6.75,21.32-17.92,23.46-31.47,1.83-11.59,0-21.24-5.55-28.68C496.91,177.06,488.2,170.32,476.35,164.22Z"/><path class="cls-1" d="M1070.77,128.5a72,72,0,0,0-20.08-7.67,75.8,75.8,0,0,0,29.11-17.59C1090.51,93,1095.94,79.78,1095.94,64a48,48,0,0,0-10.9-30.8c-7.15-8.88-16.76-15.93-28.56-21a96.17,96.17,0,0,0-38-7.56H940.08V248h82.12a103.45,103.45,0,0,0,40.3-7.72,69,69,0,0,0,29.64-23.08c7.42-10.19,11.18-22.5,11.18-36.57a53.83,53.83,0,0,0-9.29-30.81A67.53,67.53,0,0,0,1070.77,128.5ZM975.6,113.29V26.8c0-2.47.51-4.23,1.5-5.22s2.74-1.49,5.21-1.49h37.55c12,0,21.72,4,29.83,12.36s12.08,18.84,12.08,31.56c0,15.29-3.19,27.52-9.46,36.35-6.1,8.58-17.92,12.93-35.13,12.93Zm6.71,119.33c-4.76,0-6.71-1.94-6.71-6.71V128.7h42.92c13,0,23.76,3.9,32.1,11.61s12.49,21.23,12.49,40.35-4.2,32.69-12.49,40.35-19.14,11.61-32.1,11.61Z"/><path class="cls-1" d="M1269.38,224.11h-1.59l-.58,1.47c-2.12,5.26-5.2,7.71-9.68,7.71-2.21,0-8,0-8-14.42V136.41c0-17-5.75-29.8-17.07-37.93-11.08-8-24.4-12-39.58-12a60,60,0,0,0-23.19,4.71,44.56,44.56,0,0,0-18.73,14.32,36.8,36.8,0,0,0-7.35,22.87c0,7.78,2.28,13.88,6.77,18.12a21.4,21.4,0,0,0,15,6.34,19.94,19.94,0,0,0,11.93-3.46c3.43-2.47,5.16-6.5,5.16-12,0-4.22-1.31-7.61-3.91-10.08-2.43-2.3-5.77-4-10.2-5.25a7.09,7.09,0,0,1-2.18-1,5.59,5.59,0,0,1-1.52-1.34A8,8,0,0,1,1164,116c0-4,2.78-7.83,8.28-11.25a36.27,36.27,0,0,1,19.54-5.51c19.41,0,28.84,9.43,28.84,28.83v26.55l-28.92,5.34a180.22,180.22,0,0,0-28.37,7.31,52.22,52.22,0,0,0-21.22,14.55c-6.18,6.89-9.31,16.44-9.31,28.38,0,15.51,4.68,26.53,13.93,32.78,9,6.05,19.73,9.11,32,9.11a39.63,39.63,0,0,0,27.92-11.19,74.19,74.19,0,0,0,14.41-18.17c1,8.2,3.72,14.91,8,20,5.23,6.23,13.11,9.38,23.41,9.38,11,0,18.8-5.1,23.1-15.16a64.28,64.28,0,0,0,3.27-9.88l.72-2.9h-10.21Zm-48.72-57.64V195c-4.36,11.89-9.34,21.77-14.81,29.38-5.29,7.35-12.4,10.93-21.73,10.93a18.94,18.94,0,0,1-12.88-5c-3.7-3.2-5.57-9.65-5.57-19.19,0-11.51,2.28-20.47,6.76-26.61s11.79-10.23,21.88-12.33Z"/><path class="cls-1" d="M1377,86.47c-9.07,0-17.66,3.65-25.54,10.84a72.05,72.05,0,0,0-15.7,21.44V90.49h-28.81V248h28.81V167.92a97.49,97.49,0,0,1,5.57-32.74c3.65-10.35,8.61-18.86,14.74-25.31,6-6.28,11.93-9.33,18.25-9.33a12.31,12.31,0,0,1,6.61,1.47,3.23,3.23,0,0,1,1.78,2.89,3.93,3.93,0,0,1-.92,2.8,21.59,21.59,0,0,1-4.08,3.3l0,0-.05,0c-5.07,3.8-7.64,8.49-7.64,13.94a13.41,13.41,0,0,0,5.27,11.25,19.46,19.46,0,0,0,12.15,3.83c6.12,0,11.21-2.69,15.13-8,3.75-5.1,5.65-10.41,5.65-15.8,0-9.14-3-16.49-8.81-21.84S1386,86.47,1377,86.47Z"/><path class="cls-1" d="M1501.85,86.47c-9.06,0-17.65,3.65-25.55,10.84a72.37,72.37,0,0,0-15.69,21.44V90.49H1431.8V248h28.81V167.92a97.74,97.74,0,0,1,5.56-32.74c3.68-10.37,8.64-18.89,14.75-25.31,5.88-6.19,12-9.33,18.25-9.33a12.23,12.23,0,0,1,6.6,1.47,3.19,3.19,0,0,1,1.78,2.89,4,4,0,0,1-.91,2.8,21.92,21.92,0,0,1-4.08,3.3l0,0,0,0c-5.07,3.8-7.64,8.49-7.64,13.94a13.45,13.45,0,0,0,5.27,11.25,19.46,19.46,0,0,0,12.15,3.83c6.12,0,11.2-2.69,15.12-8,3.75-5.07,5.66-10.39,5.66-15.8,0-9.14-3-16.49-8.81-21.84S1510.9,86.47,1501.85,86.47Z"/><path class="cls-1" d="M1653.41,97.79a60.42,60.42,0,0,0-70.42,0A77.66,77.66,0,0,0,1557.93,128a97.9,97.9,0,0,0,0,82.48A77.52,77.52,0,0,0,1583,240.73a60.42,60.42,0,0,0,70.42,0,77.52,77.52,0,0,0,25.06-30.23,97.9,97.9,0,0,0,0-82.48A77.66,77.66,0,0,0,1653.41,97.79Zm0,71.47c0,22.59-2.86,40.25-8.5,52.49-5.45,11.83-14.18,17.58-26.7,17.58s-21.25-5.75-26.7-17.58c-5.64-12.24-8.5-29.9-8.5-52.49s2.86-40.24,8.5-52.49C1597,105,1605.68,99.2,1618.2,99.2s21.25,5.75,26.7,17.57C1650.54,129,1653.4,146.67,1653.4,169.26Z"/><path class="cls-1" d="M1828,191.06H1826l-.25,2.06a65.87,65.87,0,0,1-12.94,32.71c-7,9.08-16.68,13.5-29.66,13.5-13.38,0-22.1-5.45-26.66-16.65-4.78-11.7-7.2-29.67-7.2-53.42s2.48-41.68,7.36-53.4c4.67-11.21,13.34-16.66,26.5-16.66,6.94,0,12.78,1.2,17.36,3.59s7.94,5.12,10.06,8.15,3.09,5.52,3.09,7.71c0,.78,0,2.63-3.72,3.8a18.24,18.24,0,0,0-9.14,6.1,17.47,17.47,0,0,0-3.9,11.55,16.25,16.25,0,0,0,5.25,12.08,17.93,17.93,0,0,0,12.85,5,19.43,19.43,0,0,0,14.8-6.63c4-4.34,6-10.34,6-17.84a42.72,42.72,0,0,0-6.36-21.8,49.23,49.23,0,0,0-18.28-17.6c-7.94-4.54-17.35-6.85-28-6.85a59.31,59.31,0,0,0-35.39,11.17c-10.23,7.36-18.33,17.48-24.06,30.09a99.43,99.43,0,0,0-8.59,41.53,101.15,101.15,0,0,0,8.42,41.52c5.61,12.61,13.65,22.74,23.9,30.11a59.9,59.9,0,0,0,35.72,11.16c11.39,0,21.32-3,29.52-8.81a56.35,56.35,0,0,0,18.53-22.2,78.25,78.25,0,0,0,7.25-27.47l.18-2.51H1828Z"/><path class="cls-1" d="M1990.89,128a77.89,77.89,0,0,0-25.06-30.23,60.42,60.42,0,0,0-70.42,0A77.46,77.46,0,0,0,1870.35,128a97.82,97.82,0,0,0,0,82.49,77.44,77.44,0,0,0,25.06,30.22,60.4,60.4,0,0,0,70.41,0,77.61,77.61,0,0,0,25.06-30.22,97.87,97.87,0,0,0,0-82.49Zm-60.27,111.31c-12.54,0-21.27-5.75-26.7-17.58-5.65-12.24-8.51-29.9-8.51-52.49s2.86-40.24,8.5-52.49c5.44-11.82,14.17-17.57,26.71-17.57s21.25,5.75,26.7,17.57c5.64,12.28,8.5,29.94,8.5,52.49s-2.86,40.21-8.5,52.49C1951.87,233.58,1943.13,239.33,1930.62,239.33Z"/></g></g></svg>