<svg xmlns="http://www.w3.org/2000/svg" viewBox="0 0 1339 1080"><defs><style>.cls-1{fill:#aa1703;}</style></defs><g id="Camada_2" data-name="Camada 2"><g id="Camada_1-2" data-name="Camada 1"><path class="cls-1" d="M1339,409a30,30,0,0,1-29.94,29.94V1080H1081V438.89a29.94,29.94,0,0,1,0-59.88V257.91a29.94,29.94,0,1,1,0-59.87h4a113.88,113.88,0,0,1,64.45-74.55L1195,0l45.58,123.49A114.21,114.21,0,0,1,1305.1,198h4a29.94,29.94,0,1,1,0,59.87V379A30,30,0,0,1,1339,409Z"/><path class="cls-1" d="M287.93,409A29.93,29.93,0,0,1,258,438.89V1080h-228V438.89a29.94,29.94,0,0,1,0-59.88V257.91a29.94,29.94,0,1,1,0-59.87h4a114.17,114.17,0,0,1,64.51-74.55L143.93,0l45.58,123.49A113.89,113.89,0,0,1,254,198h4a29.94,29.94,0,1,1,0,59.87V379A29.93,29.93,0,0,1,287.93,409Z"/><path class="cls-1" d="M983.34,366.23a111.79,111.79,0,0,0-148.92-29.62,167.63,167.63,0,0,0-141.9-136.32l-1-2.55V128.68h64.57a22,22,0,1,0,0-44H691.5V35.54a22,22,0,1,0-44,0V84.69H582.93a22,22,0,0,0,0,44H647.5v69.06l-1,2.55A167.44,167.44,0,0,0,504.59,336.68,111.66,111.66,0,0,0,334.4,431.86V1080H502V729.93h1.31c28.07,0,52.41-17.63,63.34-43.5a111.7,111.7,0,0,1,205.8,0c10.93,25.86,35.26,43.5,63.34,43.5h1.31V1080h167.56V431.86A110.9,110.9,0,0,0,983.34,366.23Z"/></g></g></svg>