<svg width="32" height="32" viewBox="0 0 32 32" fill="none" xmlns="http://www.w3.org/2000/svg">
<path d="M25.3334 14.6667L14.6667 4L3.20003 15.4667C2.71142 15.9651 2.43774 16.6353 2.43774 17.3333C2.43774 18.0313 2.71142 18.7015 3.20003 19.2L10.1334 26.1333C11.2 27.2 12.8 27.2 13.8667 26.1333L25.3334 14.6667Z" stroke="#A3B18A" stroke-width="3" stroke-linecap="round" stroke-linejoin="round"/>
<path d="M6.66669 2.66675L13.3334 9.33341" stroke="#A3B18A" stroke-width="3" stroke-linecap="round" stroke-linejoin="round"/>
<path d="M2.66669 17.3333H22.6667" stroke="#A3B18A" stroke-width="3" stroke-linecap="round" stroke-linejoin="round"/>
<path d="M29.3333 26.6666C29.3333 27.3738 29.0524 28.0521 28.5523 28.5522C28.0522 29.0523 27.3739 29.3333 26.6667 29.3333C25.9594 29.3333 25.2811 29.0523 24.781 28.5522C24.281 28.0521 24 27.3738 24 26.6666C24 24.5333 26.2667 23.4666 26.6667 21.3333C27.0667 23.4666 29.3333 24.5333 29.3333 26.6666Z" stroke="#A3B18A" stroke-width="3" stroke-linecap="round" stroke-linejoin="round"/>
</svg>
