<svg xmlns="http://www.w3.org/2000/svg" viewBox="0 0 2000 274.15"><defs><style>.cls-1{fill:#1c1110;}</style></defs><g id="Camada_2" data-name="Camada 2"><g id="Camada_1-2" data-name="Camada 1"><polygon class="cls-1" points="506.66 233.53 506.66 237.66 510.8 237.66 535.79 237.66 539.92 237.66 539.92 233.53 539.92 40.08 539.92 35.95 535.79 35.95 506.45 35.95 503.3 35.95 502.46 38.98 466.46 169.5 465.01 174.74 463.47 169.52 424.83 38.91 423.95 35.95 420.87 35.95 390.17 35.95 386.03 35.95 386.03 40.08 386.03 233.53 386.03 237.66 390.17 237.66 401.03 237.66 405.17 237.66 405.17 233.53 405.17 97.73 405.17 87.17 408.21 97.28 450.6 237.98 451.49 240.92 454.56 240.92 461.08 240.92 464.22 240.92 465.06 237.89 503.61 98.66 506.66 87.62 506.66 99.07 506.66 233.53"/><path class="cls-1" d="M644.68,108.37H642.8v70a72.36,72.36,0,0,1-4,24.71c-2.65,7.26-6.36,13.05-11,17.22a22.51,22.51,0,0,1-15.52,6.09c-6.85,0-11.54-2.4-14.34-7.36-3-5.21-4.45-11.67-4.45-19.2V108.37H570.37v86.38c0,11.61,2.86,21.71,8.51,30,5.78,8.55,15.65,12.89,29.31,12.89A36.73,36.73,0,0,0,629.38,231a46.16,46.16,0,0,0,13.42-15.2v18.61h23.07V108.37H644.68Z"/><path class="cls-1" d="M907.74,188.86h-1.61l-.24,1.59c-1.9,12.72-6.33,22.17-13.19,28.1s-14.25,8.94-22,8.94c-11,0-18.6-4.83-23.4-14.77s-7.28-23.33-7.45-40h64.92c3.43,0,5.74-.36,7.28-1.14,1.33-.67,2.91-2.18,2.91-5.56a86.62,86.62,0,0,0-4.8-28.38,52.31,52.31,0,0,0-15.72-23.22c-7.29-6.17-16.72-9.3-28-9.3a45.28,45.28,0,0,0-27.83,9.37,62.31,62.31,0,0,0-19.22,24.6A79.42,79.42,0,0,0,812.51,172c0,20.41,5.26,36.62,15.63,48.2s24.39,17.52,41.5,17.52c13.18,0,24.07-4.49,32.36-13.33s12.94-20,14-33.46l.17-2h-8.47Zm-41.85-73.52c7.8,0,13.28,4.43,16.76,13.55s5.34,20.46,5.5,33.67H839.88c.2-13,2.52-24.2,6.91-33.4S857.47,115.34,865.89,115.34Z"/><path class="cls-1" d="M1013.1,108.37h-1.87v70a71.83,71.83,0,0,1-4.05,24.71c-2.66,7.27-6.36,13.07-11,17.22a22.51,22.51,0,0,1-15.52,6.09c-6.85,0-11.54-2.4-14.33-7.36-3-5.24-4.46-11.7-4.46-19.2V108.37H938.79v86.38c0,11.6,2.86,21.71,8.51,30,5.8,8.55,15.66,12.89,29.31,12.89A36.6,36.6,0,0,0,997.8,231a46.15,46.15,0,0,0,13.43-15.19v18.61h23.06V108.37H1013.1Z"/><path class="cls-1" d="M767.26,167.38l-14.6-7.44-8-4.13-3.8-1.93c-7.38-3.73-17.48-8.84-20.94-11.94-3.83-3.41-5.35-7.2-4.66-11.57a13.81,13.81,0,0,1,8.39-10.93c3.62-1.71,8.6-2.61,14.41-2.61,1.71,0,3.47.07,5.25.23,12.92,1.14,27.52,7.68,29.76,22.64l.24,1.6H775l6.48,0h2l-.16-2c-1-12.75-7.66-22-20.42-28.4-5-2.47-13.19-5.26-19.54-5.52-3.07-.13-5.49-.19-7.63-.19h0c-9.62,0-16.11,1.29-22.39,4.44-9.13,4.58-14.65,12.53-16.4,23.62-1.35,8.65,3.72,21.23,10.86,26.92,12.44,9.92,29,18.32,37.94,22.83,2.44,1.23,4.37,2.21,5.51,2.85a43.94,43.94,0,0,1,12,9.33c5.42,6.12,5,17-.78,22.42-4,3.75-9.59,7.58-20.2,7.58a57.92,57.92,0,0,1-8.27-.66c-5.74-.86-29.49-10.82-32.07-40.92l-.14-1.71H691.56l.11,2c1.61,28.3,15.69,41.77,27.22,48.09,8.66,4.75,18.92,5.75,26,5.75,10.64,0,21.38-2.28,28.75-6.11,10.4-5.4,17.06-14.34,18.78-25.18,1.46-9.28,0-17-4.45-23C783.72,177.66,776.75,172.26,767.26,167.38Z"/><path class="cls-1" d="M1256.33,138.79a57.92,57.92,0,0,0-16.08-6.14,60.68,60.68,0,0,0,23.3-14.08c8.57-8.21,12.92-18.77,12.92-31.4a38.39,38.39,0,0,0-8.73-24.64,57.88,57.88,0,0,0-22.86-16.78,76.86,76.86,0,0,0-30.38-6.06h-62.77V234.45h65.73a82.66,82.66,0,0,0,32.24-6.18,55.25,55.25,0,0,0,23.73-18.47c5.93-8.15,8.94-18,8.94-29.27a43.11,43.11,0,0,0-7.43-24.66A54.14,54.14,0,0,0,1256.33,138.79Zm-76.17-12.17V57.4c0-2,.4-3.39,1.2-4.18s2.19-1.2,4.17-1.2h30a31.77,31.77,0,0,1,23.88,9.9c6.41,6.58,9.66,15.07,9.66,25.25,0,12.24-2.55,22-7.57,29.1-4.88,6.86-14.34,10.35-28.12,10.35Zm5.37,95.5c-3.81,0-5.37-1.55-5.37-5.37V139h34.34c10.38,0,19,3.12,25.7,9.29s10,17,10,32.29-3.36,26.17-10,32.3-15.32,9.29-25.7,9.29Z"/><path class="cls-1" d="M1415.27,215.31H1414l-.48,1.17c-1.69,4.22-4.15,6.18-7.74,6.18-1.76,0-6.45,0-6.45-11.54v-66c0-13.63-4.59-23.85-13.65-30.36-8.87-6.37-19.53-9.61-31.68-9.61a48.11,48.11,0,0,0-18.56,3.77,35.62,35.62,0,0,0-15,11.46,29.51,29.51,0,0,0-5.88,18.3c0,6.23,1.82,11.11,5.41,14.51a17.19,17.19,0,0,0,12,5.07,16,16,0,0,0,9.55-2.77c2.74-2,4.13-5.2,4.13-9.56a10.69,10.69,0,0,0-3.13-8.07,19.06,19.06,0,0,0-8.17-4.2,5.46,5.46,0,0,1-1.74-.83,4.12,4.12,0,0,1-1.21-1.07,6.16,6.16,0,0,1-.51-3c0-3.24,2.23-6.27,6.63-9a29.05,29.05,0,0,1,15.64-4.41c15.53,0,23.08,7.55,23.08,23.07v21.25l-23.15,4.28a143.81,143.81,0,0,0-22.7,5.85,41.7,41.7,0,0,0-17,11.64c-5,5.52-7.46,13.16-7.46,22.71,0,12.41,3.76,21.24,11.16,26.24,7.18,4.84,15.79,7.29,25.59,7.29a31.68,31.68,0,0,0,22.34-9,59.18,59.18,0,0,0,11.54-14.54c.83,6.56,3,11.93,6.41,16,4.19,5,10.49,7.5,18.73,7.5,8.83,0,15-4.08,18.49-12.13a51.29,51.29,0,0,0,2.62-7.91l.57-2.32h-8.17Zm-39-46.13V192c-3.49,9.51-7.47,17.42-11.85,23.51-4.23,5.89-9.92,8.75-17.39,8.75a15.16,15.16,0,0,1-10.31-4c-3-2.56-4.46-7.72-4.46-15.35,0-9.22,1.82-16.39,5.41-21.3s9.44-8.19,17.52-9.87Z"/><path class="cls-1" d="M1501.39,105.15c-7.26,0-14.14,2.92-20.45,8.68A57.7,57.7,0,0,0,1468.38,131V108.37h-23.06V234.45h23.06V170.34a78,78,0,0,1,4.46-26.2c2.92-8.28,6.89-15.1,11.8-20.26s9.55-7.47,14.6-7.47a10,10,0,0,1,5.3,1.18,2.57,2.57,0,0,1,1.41,2.31,3.14,3.14,0,0,1-.73,2.24,17,17,0,0,1-3.26,2.64l0,0,0,0c-4.06,3-6.12,6.8-6.12,11.16a10.73,10.73,0,0,0,4.22,9,15.59,15.59,0,0,0,9.72,3.07c4.9,0,9-2.15,12.11-6.4a21.21,21.21,0,0,0,4.52-12.65c0-7.31-2.37-13.19-7-17.47S1508.63,105.15,1501.39,105.15Z"/><path class="cls-1" d="M1601.32,105.15c-7.24,0-14.12,2.92-20.44,8.67A58.05,58.05,0,0,0,1568.32,131V108.37h-23.06V234.45h23.06V170.34a78.29,78.29,0,0,1,4.45-26.2c3-8.31,6.92-15.12,11.8-20.26,4.71-5,9.62-7.47,14.61-7.47a9.79,9.79,0,0,1,5.28,1.18,2.55,2.55,0,0,1,1.43,2.31,3.14,3.14,0,0,1-.73,2.24,17.44,17.44,0,0,1-3.27,2.64l0,0,0,0c-4.06,3-6.12,6.8-6.12,11.16a10.77,10.77,0,0,0,4.22,9,15.6,15.6,0,0,0,9.73,3.07c4.89,0,9-2.15,12.1-6.4a21.13,21.13,0,0,0,4.53-12.65c0-7.31-2.38-13.19-7-17.47S1608.56,105.15,1601.32,105.15Z"/><path class="cls-1" d="M1722.62,114.22a48.31,48.31,0,0,0-56.36,0,62,62,0,0,0-20,24.19,78.26,78.26,0,0,0,0,66,62,62,0,0,0,20,24.19,48.36,48.36,0,0,0,56.36,0,62,62,0,0,0,20.05-24.19,78.26,78.26,0,0,0,0-66A62,62,0,0,0,1722.62,114.22Zm0,57.19c0,18.08-2.29,32.21-6.8,42-4.36,9.47-11.35,14.07-21.37,14.07s-17-4.6-21.37-14.07c-4.52-9.8-6.8-23.93-6.8-42s2.28-32.21,6.8-42c4.36-9.47,11.35-14.07,21.37-14.07s17,4.6,21.37,14.07C1720.32,139.2,1722.61,153.34,1722.61,171.41Z"/><path class="cls-1" d="M1862.38,188.86h-1.66l-.2,1.64a52.71,52.71,0,0,1-10.36,26.18c-5.58,7.27-13.34,10.81-23.73,10.81-10.71,0-17.69-4.36-21.34-13.32-3.82-9.37-5.76-23.75-5.76-42.76s2-33.35,5.89-42.74c3.74-9,10.68-13.33,21.21-13.33,5.56,0,10.23,1,13.89,2.87a22.16,22.16,0,0,1,8,6.52c1.65,2.35,2.48,4.43,2.48,6.17,0,.63,0,2.11-3,3a14.62,14.62,0,0,0-7.32,4.88,14,14,0,0,0-3.11,9.24,13,13,0,0,0,4.19,9.67,14.35,14.35,0,0,0,10.29,4,15.54,15.54,0,0,0,11.84-5.3c3.18-3.48,4.79-8.28,4.79-14.28a34.27,34.27,0,0,0-5.09-17.45,39.37,39.37,0,0,0-14.63-14.09c-6.35-3.63-13.89-5.48-22.4-5.48a47.44,47.44,0,0,0-28.32,8.94,59.26,59.26,0,0,0-19.26,24.09,79.58,79.58,0,0,0-6.87,33.23,81,81,0,0,0,6.73,33.23,58.1,58.1,0,0,0,19.13,24.09,48,48,0,0,0,28.59,8.94c9.11,0,17.06-2.37,23.62-7a45.09,45.09,0,0,0,14.83-17.77,62.52,62.52,0,0,0,5.81-22l.14-2h-8.45Z"/><path class="cls-1" d="M1992.71,138.41a62.15,62.15,0,0,0-20.06-24.19,48.3,48.3,0,0,0-56.35,0,61.81,61.81,0,0,0-20.06,24.19,78.26,78.26,0,0,0,0,66,62,62,0,0,0,20.06,24.19,48.34,48.34,0,0,0,56.35,0,62.18,62.18,0,0,0,20-24.19,78.31,78.31,0,0,0,0-66Zm-48.24,89.08c-10,0-17-4.6-21.37-14.07-4.51-9.8-6.8-23.93-6.8-42s2.29-32.21,6.8-42c4.35-9.47,11.34-14.07,21.37-14.07s17,4.6,21.37,14.07c4.52,9.82,6.81,24,6.81,42s-2.29,32.18-6.81,42C1961.48,222.89,1954.49,227.49,1944.47,227.49Z"/><path class="cls-1" d="M248.33,155.18a33.49,33.49,0,0,0-36.88,7h0c-.31.29-.61.6-.9.92l0,0a12.82,12.82,0,0,0,.58,17.5,14.54,14.54,0,0,0,1.2,1l.27.21.16.12a7.9,7.9,0,0,1-10.15,12.1l-.27-.23c-.62-.54-1.24-1.1-1.85-1.66a78.08,78.08,0,0,1,4.13-118,3,3,0,0,1,4.19.36,3,3,0,0,1,.17,3.62,7.87,7.87,0,0,0,.26,9.09,1.47,1.47,0,0,0,.1.13l.4.47s0,0,0,0A20.71,20.71,0,0,0,244,65.45a20.46,20.46,0,0,0-5.45-7.08,20.7,20.7,0,0,0-22-2.87l-.81.39c.67-1.27,1.3-2.55,1.9-3.85a20.68,20.68,0,0,0-2.87-22,20.42,20.42,0,0,0-7.07-5.45,20.71,20.71,0,0,0-22.47,34.31,0,0,0,0,0,0,0l.47.4.14.1a7.89,7.89,0,0,0,9.09.27h0a3,3,0,0,1,4,4.36,79.46,79.46,0,0,1-7.62,8.18,77.85,77.85,0,0,1-26.46,16.15A77.44,77.44,0,0,1,134.17,93a77.72,77.72,0,0,1-29-7.24A77.86,77.86,0,0,1,80.9,68.13c-.57-.61-1.12-1.23-1.67-1.85-.08-.09-.16-.17-.23-.26A7.9,7.9,0,0,1,91.1,55.86l.12.16a2.47,2.47,0,0,1,.21.27,13.37,13.37,0,0,0,1.06,1.2,12.81,12.81,0,0,0,17.5.58l0,0c.32-.29.63-.59.93-.89h0A33.52,33.52,0,1,0,55.67,45a87.71,87.71,0,0,0,13,23.68A87.72,87.72,0,0,0,45,55.58a33.52,33.52,0,1,0,12.17,55.27h0c.3-.3.6-.61.89-.93l0,0a12.81,12.81,0,0,0-.58-17.5,13.08,13.08,0,0,0-1.19-1.06,1.86,1.86,0,0,1-.28-.21L55.87,91A7.9,7.9,0,1,1,66,78.91l.26.23c.63.54,1.25,1.11,1.85,1.67A78,78,0,0,1,85.74,105,77.9,77.9,0,0,1,93,134.08a78,78,0,0,1-29,64.74,3,3,0,0,1-4.35-4h0a7.9,7.9,0,0,0-.27-9.1,1.13,1.13,0,0,0-.1-.13l-.4-.47h0A20.71,20.71,0,0,0,24.56,207.6,20.44,20.44,0,0,0,30,214.67a20.68,20.68,0,0,0,22,2.87A87.73,87.73,0,0,0,60.49,213a88.13,88.13,0,0,0-4.9,9.07A20.71,20.71,0,1,0,88,215.28v0l-.47-.4-.13-.09a7.9,7.9,0,0,0-9.1-.27,3,3,0,0,1-1.7.53,2.91,2.91,0,0,1-1.9-.69,3,3,0,0,1-.37-4.2A78.37,78.37,0,0,1,81.94,202a78.22,78.22,0,0,1,110.39,4c.56.62,1.12,1.23,1.66,1.85l.23.27a7.9,7.9,0,0,1-12.1,10.15l-.12-.16-.21-.27a13,13,0,0,0-1-1.19,12.81,12.81,0,0,0-17.5-.58l0,0c-.32.3-.62.6-.92.9h0a33.52,33.52,0,1,0,55.27,12.16,87.88,87.88,0,0,0-10-19.43,88.3,88.3,0,0,0,16,7.72,33.52,33.52,0,0,0,24.72-62.28ZM163.4,137.07a81.48,81.48,0,0,0,4.93,30.08q1.17,3.21,2.57,6.25a3.11,3.11,0,0,1-4.1,4.15c-1.83-.82-3.71-1.59-5.63-2.29a81.62,81.62,0,0,0-26.88-4.94,81.72,81.72,0,0,0-26.88,4.94c-1.92.7-3.8,1.47-5.63,2.29a3.11,3.11,0,0,1-4.1-4.15q1.39-3,2.57-6.25a81.48,81.48,0,0,0,4.93-30.08A81.43,81.43,0,0,0,100.25,107q-1.17-3.21-2.57-6.26a3.11,3.11,0,0,1,4.1-4.15q2.75,1.25,5.63,2.29a81.46,81.46,0,0,0,26.88,4.94,81.37,81.37,0,0,0,26.88-4.94q2.88-1,5.63-2.29a3.11,3.11,0,0,1,4.1,4.15q-1.4,3-2.57,6.26A81.43,81.43,0,0,0,163.4,137.07Z"/></g></g></svg>