<svg xmlns="http://www.w3.org/2000/svg" viewBox="0 0 1417.28 1080"><defs><style>.cls-1{fill:#1c1110;}</style></defs><g id="Camada_2" data-name="Camada 2"><g id="Camada_1-2" data-name="Camada 1"><path class="cls-1" d="M1417.22,540.93a48.49,48.49,0,0,0-12.72-35.28L963.36,24.85c-1.45-1.57-3.07-3.2-4.67-4.67a76.7,76.7,0,0,0-103.7,113l386.09,354.24L90.7,452c-1.7,0-3.68-.05-5.41,0A88,88,0,0,0,90.7,628l1150.38-35.41L855,946.79c-1.56,1.44-3.19,3.06-4.66,4.66a76.7,76.7,0,1,0,113,103.7l441.14-480.8A48.55,48.55,0,0,0,1416.71,547a47.93,47.93,0,0,0,.51-5.4v0a.28.28,0,0,0,0-.09C1417.24,541.3,1417.22,541.12,1417.22,540.93Z"/></g></g></svg>