<svg xmlns="http://www.w3.org/2000/svg" viewBox="0 0 1080 1080"><defs><style>.cls-1{fill:#c92711;}</style></defs><g id="Camada_2" data-name="Camada 2"><g id="Camada_1-2" data-name="Camada 1"><path class="cls-1" d="M810.75,529.5a23.89,23.89,0,0,1,0-33.79c72.24-72.24,72.24-189.77,0-262a23.9,23.9,0,0,1,33.8-33.79c90.86,90.87,90.86,238.72,0,329.59A23.89,23.89,0,0,1,810.75,529.5Z"/><path class="cls-1" d="M972.39,107.61A366.45,366.45,0,0,0,700.39.19c-193.34,6.25-350.3,164.47-355.2,357.89-2.37,93.43,29.77,179.25,77.15,236.38L329,687.79c-30-15.16-77.72-29.49-109.39,7.59l-114.81,137C95.75,846.55,52,897.49,40.74,910c-28.85,32-70.59,74.44-8.64,136.39l.75.74.75.75c61.94,61.95,104.39,20.21,136.38-8.64,12.52-11.26,63.47-55,77.66-64l137-114.82C421.7,828.72,407.37,781,392.21,751l93.33-93.34c57.13,47.37,143,79.51,236.38,77.14,193.42-4.9,351.65-161.86,357.89-355.2A366.45,366.45,0,0,0,972.39,107.61ZM714,642.41A277.07,277.07,0,0,1,437.59,366C437.64,213.81,561,90.43,713.27,90.43a276.76,276.76,0,0,1,276.3,276.3C989.57,519,866.19,642.37,714,642.41Z"/></g></g></svg>