<svg width="19" height="19" viewBox="0 0 19 19" fill="none" xmlns="http://www.w3.org/2000/svg">
<g clip-path="url(#clip0_65_55)">
<path fill-rule="evenodd" clip-rule="evenodd" d="M16.2316 2.75896C14.4458 0.980704 12.0706 0.000902211 9.5399 0C4.32519 0 0.0811965 4.2201 0.079382 9.40736C0.0784748 11.0656 0.514396 12.6842 1.34224 14.1106L0 18.9861L5.01513 17.6779C6.39682 18.4277 7.95271 18.8224 9.53584 18.8229H9.5399C14.7537 18.8229 18.9982 14.6023 19 9.41503C19.0009 6.90104 18.0179 4.53768 16.2316 2.75941V2.75896ZM9.5399 17.2341H9.53673C8.12598 17.2336 6.74204 16.8565 5.53454 16.1442L5.24739 15.9746L2.27124 16.7509L3.06551 13.8652L2.87862 13.5693C2.0916 12.3242 1.67564 10.8852 1.67655 9.40784C1.67836 5.0966 5.20565 1.58879 9.54312 1.58879C11.6433 1.5897 13.6175 2.40395 15.1021 3.88222C16.5868 5.36005 17.4037 7.32508 17.4028 9.41413C17.401 13.7258 13.8737 17.2336 9.5399 17.2336V17.2341ZM13.8528 11.3778C13.6165 11.2601 12.4544 10.6916 12.2375 10.6132C12.0207 10.5347 11.8633 10.4955 11.7059 10.7309C11.5485 10.9664 11.0954 11.496 10.9575 11.6525C10.8196 11.8095 10.6816 11.8289 10.4453 11.7111C10.209 11.5934 9.44738 11.3453 8.54425 10.5446C7.84162 9.92115 7.36709 9.1516 7.22924 8.91609C7.09133 8.68064 7.21472 8.55341 7.33263 8.43658C7.43876 8.33103 7.56897 8.16187 7.68735 8.02472C7.80578 7.88757 7.84478 7.78927 7.92369 7.6327C8.00264 7.47571 7.96316 7.33862 7.90421 7.22084C7.84521 7.10311 7.37258 5.946 7.17524 5.47552C6.98334 5.0172 6.78833 5.07946 6.64361 5.07179C6.50571 5.06502 6.34832 5.06367 6.19046 5.06367C6.03261 5.06367 5.77674 5.12231 5.55993 5.35779C5.34312 5.59324 4.73254 6.16209 4.73254 7.31873C4.73254 8.47536 5.57946 9.59369 5.69784 9.75068C5.81622 9.90766 7.36482 12.2818 9.73586 13.3004C10.2997 13.5426 10.7402 13.6875 11.0835 13.7957C11.6497 13.9748 12.165 13.9496 12.5723 13.8891C13.0264 13.8215 13.9708 13.3203 14.1677 12.7713C14.3645 12.2222 14.3645 11.7513 14.3056 11.6534C14.2466 11.5555 14.0888 11.4964 13.8524 11.3787L13.8528 11.3778Z" fill="white"/>
</g>
<defs>
<clipPath id="clip0_65_55">
<rect width="19" height="19" fill="white"/>
</clipPath>
</defs>
</svg>
