<svg width="19" height="19" viewBox="0 0 19 19" fill="none" xmlns="http://www.w3.org/2000/svg">
<g clip-path="url(#clip0_65_42)">
<path d="M5.56543 0.0666849C4.55463 0.114375 3.86436 0.275685 3.26092 0.512805C2.63639 0.756195 2.10705 1.0828 1.58037 1.61138C1.05369 2.13996 0.729364 2.66968 0.487684 3.29516C0.253794 3.89993 0.0953344 4.59078 0.0506844 5.60214C0.00603437 6.61351 -0.00384563 6.9386 0.00109437 9.51842C0.00603437 12.0982 0.0174344 12.4216 0.0664544 13.4351C0.114714 14.4457 0.275454 15.1358 0.512574 15.7394C0.756344 16.3639 1.08257 16.8931 1.61134 17.42C2.14011 17.9468 2.66945 18.2704 3.29645 18.5125C3.90065 18.746 4.59168 18.9052 5.60286 18.9495C6.61404 18.9937 6.93951 19.004 9.51857 18.999C12.0976 18.9941 12.4223 18.9827 13.4356 18.9346C14.4489 18.8866 15.1354 18.7247 15.7392 18.4887C16.3637 18.2444 16.8932 17.9187 17.4197 17.3897C17.9462 16.8608 18.2704 16.3307 18.5118 15.7048C18.7459 15.1006 18.905 14.4096 18.9488 13.3992C18.9931 12.3851 19.0036 12.0614 18.9986 9.48195C18.9937 6.9025 18.9821 6.57912 18.934 5.56604C18.886 4.55296 18.725 3.86497 18.4881 3.26096C18.2439 2.63643 17.9181 2.10766 17.3895 1.58041C16.8609 1.05316 16.3305 0.729215 15.7048 0.488295C15.1002 0.254405 14.4096 0.0949949 13.3984 0.0512949C12.3872 0.00759487 12.0617 -0.00361513 9.48171 0.00132487C6.9017 0.00626487 6.5787 0.0172849 5.56543 0.0666849ZM5.67639 17.2404C4.75014 17.2001 4.24721 17.0462 3.91205 16.9174C3.46821 16.7464 3.15205 16.5397 2.81803 16.2089C2.48401 15.8781 2.27881 15.5608 2.10553 15.1179C1.97538 14.7828 1.81863 14.2804 1.77531 13.3541C1.72819 12.353 1.71831 12.0525 1.7128 9.51614C1.70729 6.97983 1.71698 6.67963 1.76087 5.67814C1.80039 4.75266 1.95524 4.24916 2.08387 3.91418C2.25487 3.46977 2.46083 3.15418 2.79238 2.82035C3.12393 2.48652 3.44028 2.28094 3.88355 2.10766C4.21833 1.97694 4.72069 1.82152 5.64656 1.77744C6.64843 1.72994 6.94863 1.72044 9.48456 1.71493C12.0205 1.70942 12.3215 1.71892 13.3237 1.763C14.2492 1.80328 14.7529 1.95661 15.0875 2.086C15.5315 2.257 15.8475 2.46239 16.1813 2.79452C16.5151 3.12664 16.7209 3.44184 16.8942 3.88607C17.0251 4.21989 17.1805 4.72206 17.2242 5.6485C17.2719 6.65037 17.2827 6.95076 17.2873 9.4865C17.2919 12.0222 17.2829 12.3234 17.239 13.3245C17.1986 14.2508 17.045 14.7539 16.916 15.0894C16.745 15.5331 16.5389 15.8494 16.2071 16.1831C15.8754 16.5167 15.5594 16.7223 15.116 16.8956C14.7816 17.0261 14.2786 17.1819 13.3535 17.226C12.3517 17.2731 12.0515 17.283 9.51458 17.2885C6.9777 17.294 6.67845 17.2837 5.67658 17.2404M13.421 4.42281C13.4214 4.6483 13.4886 4.86861 13.6142 5.05588C13.7398 5.24315 13.9181 5.38897 14.1266 5.4749C14.335 5.56082 14.5643 5.58299 14.7854 5.53861C15.0065 5.49422 15.2094 5.38527 15.3686 5.22553C15.5277 5.0658 15.6359 4.86245 15.6795 4.64122C15.7231 4.41998 15.7001 4.19079 15.6134 3.98264C15.5267 3.77448 15.3802 3.59671 15.1925 3.4718C15.0047 3.34689 14.7842 3.28046 14.5587 3.28091C14.2564 3.28152 13.9668 3.40215 13.7534 3.61629C13.5401 3.83043 13.4205 4.12053 13.421 4.42281ZM4.62208 9.50968C4.6274 12.2039 6.81544 14.383 9.50907 14.3779C12.2027 14.3727 14.3833 12.1849 14.3782 9.49068C14.3731 6.79648 12.1845 4.6168 9.49045 4.62212C6.79644 4.62744 4.61695 6.81587 4.62208 9.50968ZM6.33322 9.50626C6.33199 8.87995 6.5165 8.26733 6.86343 7.74587C7.21037 7.22442 7.70414 6.81755 8.28231 6.57673C8.86047 6.3359 9.49707 6.27193 10.1116 6.3929C10.7261 6.51387 11.291 6.81436 11.7347 7.25636C12.1785 7.69835 12.4812 8.26201 12.6046 8.87605C12.728 9.49009 12.6666 10.1269 12.428 10.7061C12.1895 11.2852 11.7846 11.7806 11.2645 12.1295C10.7444 12.4785 10.1325 12.6655 9.50622 12.6667C9.09035 12.6676 8.67838 12.5865 8.29383 12.4282C7.90929 12.2698 7.55971 12.0372 7.26506 11.7438C6.97041 11.4503 6.73646 11.1016 6.57657 10.7177C6.41669 10.3338 6.334 9.92214 6.33322 9.50626Z" fill="white"/>
</g>
<defs>
<clipPath id="clip0_65_42">
<rect width="19" height="19" fill="white"/>
</clipPath>
</defs>
</svg>
